<svg width="1949" height="552" viewBox="0 0 1949 552" fill="none" xmlns="http://www.w3.org/2000/svg">
<g clip-path="url(#clip0_305_584)">
<rect width="1949" height="552" fill="#FFBB00"/>
<path d="M109.682 203.909V297H94.6818L50.8182 233.591H50.0455V297H33.1818V203.909H48.2727L92.0909 267.364H92.9091V203.909H109.682ZM157.693 324.636C151.784 324.636 146.708 323.833 142.466 322.227C138.223 320.652 134.814 318.53 132.239 315.864C129.663 313.197 127.875 310.242 126.875 307L141.693 303.409C142.36 304.773 143.33 306.121 144.602 307.455C145.875 308.818 147.587 309.939 149.739 310.818C151.92 311.727 154.663 312.182 157.966 312.182C162.633 312.182 166.496 311.045 169.557 308.773C172.617 306.53 174.148 302.833 174.148 297.682V284.455H173.33C172.481 286.152 171.239 287.894 169.602 289.682C167.996 291.47 165.86 292.97 163.193 294.182C160.557 295.394 157.239 296 153.239 296C147.875 296 143.011 294.742 138.648 292.227C134.314 289.682 130.86 285.894 128.284 280.864C125.739 275.803 124.466 269.47 124.466 261.864C124.466 254.197 125.739 247.727 128.284 242.455C130.86 237.152 134.33 233.136 138.693 230.409C143.057 227.652 147.92 226.273 153.284 226.273C157.375 226.273 160.739 226.97 163.375 228.364C166.042 229.727 168.163 231.379 169.739 233.318C171.314 235.227 172.511 237.03 173.33 238.727H174.239V227.182H190.466V298.136C190.466 304.106 189.042 309.045 186.193 312.955C183.345 316.864 179.451 319.788 174.511 321.727C169.572 323.667 163.966 324.636 157.693 324.636ZM157.83 283.091C161.314 283.091 164.284 282.242 166.739 280.545C169.193 278.848 171.057 276.409 172.33 273.227C173.602 270.045 174.239 266.227 174.239 261.773C174.239 257.379 173.602 253.53 172.33 250.227C171.087 246.924 169.239 244.364 166.784 242.545C164.36 240.697 161.375 239.773 157.83 239.773C154.163 239.773 151.102 240.727 148.648 242.636C146.193 244.545 144.345 247.167 143.102 250.5C141.86 253.803 141.239 257.561 141.239 261.773C141.239 266.045 141.86 269.788 143.102 273C144.375 276.182 146.239 278.667 148.693 280.455C151.178 282.212 154.223 283.091 157.83 283.091ZM251.83 267.636V227.182H268.284V297H252.33V284.591H251.602C250.027 288.5 247.436 291.697 243.83 294.182C240.254 296.667 235.845 297.909 230.602 297.909C226.027 297.909 221.981 296.894 218.466 294.864C214.981 292.803 212.254 289.818 210.284 285.909C208.314 281.97 207.33 277.212 207.33 271.636V227.182H223.784V269.091C223.784 273.515 224.996 277.03 227.42 279.636C229.845 282.242 233.027 283.545 236.966 283.545C239.39 283.545 241.739 282.955 244.011 281.773C246.284 280.591 248.148 278.833 249.602 276.5C251.087 274.136 251.83 271.182 251.83 267.636ZM295.432 323.182C293.189 323.182 291.114 323 289.205 322.636C287.326 322.303 285.826 321.909 284.705 321.455L288.523 308.636C290.917 309.333 293.053 309.667 294.932 309.636C296.811 309.606 298.462 309.015 299.886 307.864C301.341 306.742 302.568 304.864 303.568 302.227L304.977 298.455L279.659 227.182H297.114L313.205 279.909H313.932L330.068 227.182H347.568L319.614 305.455C318.311 309.152 316.583 312.318 314.432 314.955C312.28 317.621 309.644 319.652 306.523 321.045C303.432 322.47 299.735 323.182 295.432 323.182ZM387.489 298.364C380.489 298.364 374.443 296.909 369.352 294C364.292 291.061 360.398 286.909 357.67 281.545C354.943 276.152 353.58 269.803 353.58 262.5C353.58 255.318 354.943 249.015 357.67 243.591C360.428 238.136 364.277 233.894 369.216 230.864C374.155 227.803 379.958 226.273 386.625 226.273C390.928 226.273 394.989 226.97 398.807 228.364C402.655 229.727 406.049 231.848 408.989 234.727C411.958 237.606 414.292 241.273 415.989 245.727C417.686 250.152 418.534 255.424 418.534 261.545V266.591H361.307V255.5H402.761C402.731 252.348 402.049 249.545 400.716 247.091C399.383 244.606 397.519 242.652 395.125 241.227C392.761 239.803 390.004 239.091 386.852 239.091C383.489 239.091 380.534 239.909 377.989 241.545C375.443 243.152 373.458 245.273 372.034 247.909C370.64 250.515 369.928 253.379 369.898 256.5V266.182C369.898 270.242 370.64 273.727 372.125 276.636C373.61 279.515 375.686 281.727 378.352 283.273C381.019 284.788 384.14 285.545 387.716 285.545C390.11 285.545 392.277 285.212 394.216 284.545C396.155 283.848 397.837 282.833 399.261 281.5C400.686 280.167 401.761 278.515 402.489 276.545L417.852 278.273C416.883 282.333 415.034 285.879 412.307 288.909C409.61 291.909 406.155 294.242 401.943 295.909C397.731 297.545 392.913 298.364 387.489 298.364ZM448.909 256.091V297H432.455V227.182H448.182V239.045H449C450.606 235.136 453.167 232.03 456.682 229.727C460.227 227.424 464.606 226.273 469.818 226.273C474.636 226.273 478.833 227.303 482.409 229.364C486.015 231.424 488.803 234.409 490.773 238.318C492.773 242.227 493.758 246.97 493.727 252.545V297H477.273V255.091C477.273 250.424 476.061 246.773 473.636 244.136C471.242 241.5 467.924 240.182 463.682 240.182C460.803 240.182 458.242 240.818 456 242.091C453.788 243.333 452.045 245.136 450.773 247.5C449.53 249.864 448.909 252.727 448.909 256.091ZM574.477 297H542.932V203.909H575.114C584.356 203.909 592.295 205.773 598.932 209.5C605.598 213.197 610.72 218.515 614.295 225.455C617.871 232.394 619.659 240.697 619.659 250.364C619.659 260.061 617.856 268.394 614.25 275.364C610.674 282.333 605.508 287.682 598.75 291.409C592.023 295.136 583.932 297 574.477 297ZM559.795 282.409H573.659C580.144 282.409 585.553 281.227 589.886 278.864C594.22 276.47 597.477 272.909 599.659 268.182C601.841 263.424 602.932 257.485 602.932 250.364C602.932 243.242 601.841 237.333 599.659 232.636C597.477 227.909 594.25 224.379 589.977 222.045C585.735 219.682 580.462 218.5 574.159 218.5H559.795V282.409ZM655.045 298.409C650.621 298.409 646.636 297.621 643.091 296.045C639.576 294.439 636.788 292.076 634.727 288.955C632.697 285.833 631.682 281.985 631.682 277.409C631.682 273.47 632.409 270.212 633.864 267.636C635.318 265.061 637.303 263 639.818 261.455C642.333 259.909 645.167 258.742 648.318 257.955C651.5 257.136 654.788 256.545 658.182 256.182C662.273 255.758 665.591 255.379 668.136 255.045C670.682 254.682 672.53 254.136 673.682 253.409C674.864 252.652 675.455 251.485 675.455 249.909V249.636C675.455 246.212 674.439 243.561 672.409 241.682C670.379 239.803 667.455 238.864 663.636 238.864C659.606 238.864 656.409 239.742 654.045 241.5C651.712 243.258 650.136 245.333 649.318 247.727L633.955 245.545C635.167 241.303 637.167 237.758 639.955 234.909C642.742 232.03 646.152 229.879 650.182 228.455C654.212 227 658.667 226.273 663.545 226.273C666.909 226.273 670.258 226.667 673.591 227.455C676.924 228.242 679.97 229.545 682.727 231.364C685.485 233.152 687.697 235.591 689.364 238.682C691.061 241.773 691.909 245.636 691.909 250.273V297H676.091V287.409H675.545C674.545 289.348 673.136 291.167 671.318 292.864C669.53 294.53 667.273 295.879 664.545 296.909C661.848 297.909 658.682 298.409 655.045 298.409ZM659.318 286.318C662.621 286.318 665.485 285.667 667.909 284.364C670.333 283.03 672.197 281.273 673.5 279.091C674.833 276.909 675.5 274.53 675.5 271.955V263.727C674.985 264.152 674.106 264.545 672.864 264.909C671.652 265.273 670.288 265.591 668.773 265.864C667.258 266.136 665.758 266.379 664.273 266.591C662.788 266.803 661.5 266.985 660.409 267.136C657.955 267.47 655.758 268.015 653.818 268.773C651.879 269.53 650.348 270.591 649.227 271.955C648.106 273.288 647.545 275.015 647.545 277.136C647.545 280.167 648.652 282.455 650.864 284C653.076 285.545 655.894 286.318 659.318 286.318ZM724.909 256.091V297H708.455V227.182H724.182V239.045H725C726.606 235.136 729.167 232.03 732.682 229.727C736.227 227.424 740.606 226.273 745.818 226.273C750.636 226.273 754.833 227.303 758.409 229.364C762.015 231.424 764.803 234.409 766.773 238.318C768.773 242.227 769.758 246.97 769.727 252.545V297H753.273V255.091C753.273 250.424 752.061 246.773 749.636 244.136C747.242 241.5 743.924 240.182 739.682 240.182C736.803 240.182 734.242 240.818 732 242.091C729.788 243.333 728.045 245.136 726.773 247.5C725.53 249.864 724.909 252.727 724.909 256.091ZM816.818 324.636C810.909 324.636 805.833 323.833 801.591 322.227C797.348 320.652 793.939 318.53 791.364 315.864C788.788 313.197 787 310.242 786 307L800.818 303.409C801.485 304.773 802.455 306.121 803.727 307.455C805 308.818 806.712 309.939 808.864 310.818C811.045 311.727 813.788 312.182 817.091 312.182C821.758 312.182 825.621 311.045 828.682 308.773C831.742 306.53 833.273 302.833 833.273 297.682V284.455H832.455C831.606 286.152 830.364 287.894 828.727 289.682C827.121 291.47 824.985 292.97 822.318 294.182C819.682 295.394 816.364 296 812.364 296C807 296 802.136 294.742 797.773 292.227C793.439 289.682 789.985 285.894 787.409 280.864C784.864 275.803 783.591 269.47 783.591 261.864C783.591 254.197 784.864 247.727 787.409 242.455C789.985 237.152 793.455 233.136 797.818 230.409C802.182 227.652 807.045 226.273 812.409 226.273C816.5 226.273 819.864 226.97 822.5 228.364C825.167 229.727 827.288 231.379 828.864 233.318C830.439 235.227 831.636 237.03 832.455 238.727H833.364V227.182H849.591V298.136C849.591 304.106 848.167 309.045 845.318 312.955C842.47 316.864 838.576 319.788 833.636 321.727C828.697 323.667 823.091 324.636 816.818 324.636ZM816.955 283.091C820.439 283.091 823.409 282.242 825.864 280.545C828.318 278.848 830.182 276.409 831.455 273.227C832.727 270.045 833.364 266.227 833.364 261.773C833.364 257.379 832.727 253.53 831.455 250.227C830.212 246.924 828.364 244.364 825.909 242.545C823.485 240.697 820.5 239.773 816.955 239.773C813.288 239.773 810.227 240.727 807.773 242.636C805.318 244.545 803.47 247.167 802.227 250.5C800.985 253.803 800.364 257.561 800.364 261.773C800.364 266.045 800.985 269.788 802.227 273C803.5 276.182 805.364 278.667 807.818 280.455C810.303 282.212 813.348 283.091 816.955 283.091ZM898.932 297V203.909H915.795V246.682H916.932L953.25 203.909H973.841L937.841 245.682L974.159 297H953.886L926.114 257.091L915.795 269.273V297H898.932ZM1001.28 256.091V297H984.83V203.909H1000.92V239.045H1001.74C1003.38 235.106 1005.91 232 1009.33 229.727C1012.78 227.424 1017.18 226.273 1022.51 226.273C1027.36 226.273 1031.59 227.288 1035.19 229.318C1038.8 231.348 1041.59 234.318 1043.56 238.227C1045.56 242.136 1046.56 246.909 1046.56 252.545V297H1030.1V255.091C1030.1 250.394 1028.89 246.742 1026.47 244.136C1024.07 241.5 1020.71 240.182 1016.38 240.182C1013.47 240.182 1010.86 240.818 1008.56 242.091C1006.28 243.333 1004.5 245.136 1003.19 247.5C1001.92 249.864 1001.28 252.727 1001.28 256.091ZM1093.78 298.364C1086.97 298.364 1081.06 296.864 1076.06 293.864C1071.06 290.864 1067.18 286.667 1064.42 281.273C1061.69 275.879 1060.33 269.576 1060.33 262.364C1060.33 255.152 1061.69 248.833 1064.42 243.409C1067.18 237.985 1071.06 233.773 1076.06 230.773C1081.06 227.773 1086.97 226.273 1093.78 226.273C1100.6 226.273 1106.51 227.773 1111.51 230.773C1116.51 233.773 1120.38 237.985 1123.1 243.409C1125.86 248.833 1127.24 255.152 1127.24 262.364C1127.24 269.576 1125.86 275.879 1123.1 281.273C1120.38 286.667 1116.51 290.864 1111.51 293.864C1106.51 296.864 1100.6 298.364 1093.78 298.364ZM1093.88 285.182C1097.57 285.182 1100.66 284.167 1103.15 282.136C1105.63 280.076 1107.48 277.318 1108.69 273.864C1109.94 270.409 1110.56 266.561 1110.56 262.318C1110.56 258.045 1109.94 254.182 1108.69 250.727C1107.48 247.242 1105.63 244.47 1103.15 242.409C1100.66 240.348 1097.57 239.318 1093.88 239.318C1090.09 239.318 1086.94 240.348 1084.42 242.409C1081.94 244.47 1080.07 247.242 1078.83 250.727C1077.62 254.182 1077.01 258.045 1077.01 262.318C1077.01 266.561 1077.62 270.409 1078.83 273.864C1080.07 277.318 1081.94 280.076 1084.42 282.136C1086.94 284.167 1090.09 285.182 1093.88 285.182ZM1161.3 298.409C1156.87 298.409 1152.89 297.621 1149.34 296.045C1145.83 294.439 1143.04 292.076 1140.98 288.955C1138.95 285.833 1137.93 281.985 1137.93 277.409C1137.93 273.47 1138.66 270.212 1140.11 267.636C1141.57 265.061 1143.55 263 1146.07 261.455C1148.58 259.909 1151.42 258.742 1154.57 257.955C1157.75 257.136 1161.04 256.545 1164.43 256.182C1168.52 255.758 1171.84 255.379 1174.39 255.045C1176.93 254.682 1178.78 254.136 1179.93 253.409C1181.11 252.652 1181.7 251.485 1181.7 249.909V249.636C1181.7 246.212 1180.69 243.561 1178.66 241.682C1176.63 239.803 1173.7 238.864 1169.89 238.864C1165.86 238.864 1162.66 239.742 1160.3 241.5C1157.96 243.258 1156.39 245.333 1155.57 247.727L1140.2 245.545C1141.42 241.303 1143.42 237.758 1146.2 234.909C1148.99 232.03 1152.4 229.879 1156.43 228.455C1160.46 227 1164.92 226.273 1169.8 226.273C1173.16 226.273 1176.51 226.667 1179.84 227.455C1183.17 228.242 1186.22 229.545 1188.98 231.364C1191.73 233.152 1193.95 235.591 1195.61 238.682C1197.31 241.773 1198.16 245.636 1198.16 250.273V297H1182.34V287.409H1181.8C1180.8 289.348 1179.39 291.167 1177.57 292.864C1175.78 294.53 1173.52 295.879 1170.8 296.909C1168.1 297.909 1164.93 298.409 1161.3 298.409ZM1165.57 286.318C1168.87 286.318 1171.73 285.667 1174.16 284.364C1176.58 283.03 1178.45 281.273 1179.75 279.091C1181.08 276.909 1181.75 274.53 1181.75 271.955V263.727C1181.23 264.152 1180.36 264.545 1179.11 264.909C1177.9 265.273 1176.54 265.591 1175.02 265.864C1173.51 266.136 1172.01 266.379 1170.52 266.591C1169.04 266.803 1167.75 266.985 1166.66 267.136C1164.2 267.47 1162.01 268.015 1160.07 268.773C1158.13 269.53 1156.6 270.591 1155.48 271.955C1154.36 273.288 1153.8 275.015 1153.8 277.136C1153.8 280.167 1154.9 282.455 1157.11 284C1159.33 285.545 1162.14 286.318 1165.57 286.318Z" fill="#262422"/>
<path d="M46.6136 341.909H50.1364V361.17C50.1364 363.159 49.6676 364.935 48.7301 366.497C47.8021 368.05 46.4905 369.277 44.7955 370.176C43.1004 371.066 41.1117 371.511 38.8295 371.511C36.5473 371.511 34.5587 371.066 32.8636 370.176C31.1686 369.277 29.8523 368.05 28.9148 366.497C27.9867 364.935 27.5227 363.159 27.5227 361.17V341.909H31.0455V360.886C31.0455 362.307 31.358 363.571 31.983 364.679C32.608 365.777 33.4981 366.644 34.6534 367.278C35.8182 367.903 37.2102 368.216 38.8295 368.216C40.4489 368.216 41.8409 367.903 43.0057 367.278C44.1705 366.644 45.0606 365.777 45.6761 364.679C46.3011 363.571 46.6136 362.307 46.6136 360.886V341.909ZM60.6939 341.909V371H57.1712V341.909H60.6939ZM77.5866 340.545L68.2116 375.375H65.1435L74.5185 340.545H77.5866ZM101.106 341.909H104.629V361.17C104.629 363.159 104.16 364.935 103.222 366.497C102.294 368.05 100.983 369.277 99.2876 370.176C97.5926 371.066 95.6039 371.511 93.3217 371.511C91.0395 371.511 89.0509 371.066 87.3558 370.176C85.6607 369.277 84.3445 368.05 83.407 366.497C82.4789 364.935 82.0149 363.159 82.0149 361.17V341.909H85.5376V360.886C85.5376 362.307 85.8501 363.571 86.4751 364.679C87.1001 365.777 87.9903 366.644 89.1456 367.278C90.3104 367.903 91.7024 368.216 93.3217 368.216C94.9411 368.216 96.3331 367.903 97.4979 367.278C98.6626 366.644 99.5528 365.777 100.168 364.679C100.793 363.571 101.106 362.307 101.106 360.886V341.909ZM113.368 341.909L120.868 354.011H121.095L128.595 341.909H132.743L123.595 356.455L132.743 371H128.595L121.095 359.125H120.868L113.368 371H109.22L118.595 356.455L109.22 341.909H113.368ZM157.555 371H148.577V341.909H157.952C160.774 341.909 163.189 342.491 165.197 343.656C167.204 344.812 168.743 346.473 169.813 348.642C170.883 350.801 171.418 353.386 171.418 356.398C171.418 359.428 170.879 362.037 169.799 364.224C168.719 366.402 167.147 368.079 165.083 369.253C163.019 370.418 160.509 371 157.555 371ZM152.1 367.875H157.327C159.733 367.875 161.726 367.411 163.308 366.483C164.889 365.555 166.068 364.234 166.844 362.52C167.621 360.806 168.009 358.765 168.009 356.398C168.009 354.049 167.626 352.027 166.859 350.332C166.092 348.628 164.946 347.321 163.421 346.412C161.897 345.493 159.998 345.034 157.725 345.034H152.1V367.875ZM186.021 371.455C183.918 371.455 182.105 370.991 180.58 370.062C179.065 369.125 177.896 367.818 177.072 366.142C176.257 364.456 175.85 362.496 175.85 360.261C175.85 358.027 176.257 356.057 177.072 354.352C177.896 352.638 179.041 351.303 180.509 350.347C181.987 349.381 183.71 348.898 185.68 348.898C186.816 348.898 187.938 349.087 189.046 349.466C190.154 349.845 191.163 350.46 192.072 351.312C192.981 352.155 193.705 353.273 194.245 354.665C194.785 356.057 195.055 357.771 195.055 359.807V361.227H178.237V358.33H191.646C191.646 357.098 191.399 356 190.907 355.034C190.424 354.068 189.733 353.306 188.833 352.747C187.943 352.188 186.892 351.909 185.68 351.909C184.344 351.909 183.189 352.241 182.214 352.903C181.248 353.557 180.504 354.409 179.984 355.46C179.463 356.511 179.202 357.638 179.202 358.841V360.773C179.202 362.42 179.487 363.817 180.055 364.963C180.632 366.099 181.433 366.966 182.455 367.562C183.478 368.15 184.666 368.443 186.021 368.443C186.901 368.443 187.697 368.32 188.407 368.074C189.127 367.818 189.747 367.439 190.268 366.938C190.789 366.426 191.191 365.792 191.475 365.034L194.714 365.943C194.373 367.042 193.8 368.008 192.995 368.841C192.19 369.665 191.196 370.309 190.012 370.773C188.828 371.227 187.498 371.455 186.021 371.455ZM215.609 354.068L212.597 354.92C212.408 354.419 212.129 353.931 211.759 353.457C211.399 352.974 210.907 352.577 210.282 352.264C209.657 351.952 208.857 351.795 207.881 351.795C206.546 351.795 205.433 352.103 204.543 352.719C203.663 353.325 203.222 354.097 203.222 355.034C203.222 355.867 203.525 356.526 204.131 357.009C204.737 357.491 205.684 357.894 206.972 358.216L210.211 359.011C212.162 359.485 213.615 360.209 214.572 361.185C215.528 362.151 216.006 363.396 216.006 364.92C216.006 366.17 215.647 367.288 214.927 368.273C214.217 369.258 213.222 370.034 211.944 370.602C210.665 371.17 209.179 371.455 207.484 371.455C205.258 371.455 203.416 370.972 201.958 370.006C200.5 369.04 199.576 367.629 199.188 365.773L202.37 364.977C202.673 366.152 203.246 367.032 204.089 367.619C204.941 368.206 206.054 368.5 207.427 368.5C208.989 368.5 210.23 368.169 211.148 367.506C212.076 366.833 212.54 366.028 212.54 365.091C212.54 364.333 212.275 363.699 211.745 363.188C211.215 362.667 210.4 362.278 209.302 362.023L205.665 361.17C203.667 360.697 202.2 359.963 201.262 358.969C200.334 357.965 199.87 356.71 199.87 355.205C199.87 353.973 200.216 352.884 200.907 351.938C201.608 350.991 202.559 350.247 203.762 349.707C204.974 349.168 206.347 348.898 207.881 348.898C210.04 348.898 211.736 349.371 212.967 350.318C214.207 351.265 215.088 352.515 215.609 354.068ZM221.053 371V349.182H224.405V371H221.053ZM222.757 345.545C222.104 345.545 221.54 345.323 221.067 344.878C220.603 344.433 220.371 343.898 220.371 343.273C220.371 342.648 220.603 342.113 221.067 341.668C221.54 341.223 222.104 341 222.757 341C223.411 341 223.969 341.223 224.433 341.668C224.907 342.113 225.143 342.648 225.143 343.273C225.143 343.898 224.907 344.433 224.433 344.878C223.969 345.323 223.411 345.545 222.757 345.545ZM239.352 379.636C237.732 379.636 236.34 379.428 235.175 379.011C234.011 378.604 233.04 378.064 232.263 377.392C231.496 376.729 230.886 376.019 230.431 375.261L233.102 373.386C233.405 373.784 233.788 374.239 234.252 374.75C234.716 375.271 235.351 375.721 236.156 376.099C236.97 376.488 238.035 376.682 239.352 376.682C241.113 376.682 242.567 376.256 243.712 375.403C244.858 374.551 245.431 373.216 245.431 371.398V366.966H245.147C244.901 367.364 244.55 367.856 244.096 368.443C243.651 369.021 243.007 369.537 242.164 369.991C241.331 370.437 240.204 370.659 238.783 370.659C237.022 370.659 235.441 370.242 234.039 369.409C232.647 368.576 231.544 367.364 230.729 365.773C229.924 364.182 229.522 362.25 229.522 359.977C229.522 357.742 229.915 355.796 230.701 354.139C231.487 352.473 232.581 351.185 233.982 350.276C235.384 349.357 237.003 348.898 238.84 348.898C240.261 348.898 241.388 349.134 242.221 349.608C243.064 350.072 243.708 350.602 244.153 351.199C244.607 351.786 244.958 352.269 245.204 352.648H245.545V349.182H248.783V371.625C248.783 373.5 248.357 375.025 247.505 376.199C246.662 377.383 245.526 378.249 244.096 378.798C242.675 379.357 241.094 379.636 239.352 379.636ZM239.238 367.648C240.583 367.648 241.719 367.34 242.647 366.724C243.575 366.109 244.281 365.223 244.763 364.068C245.246 362.913 245.488 361.53 245.488 359.92C245.488 358.348 245.251 356.961 244.778 355.759C244.304 354.556 243.603 353.614 242.675 352.932C241.747 352.25 240.602 351.909 239.238 351.909C237.817 351.909 236.634 352.269 235.687 352.989C234.749 353.708 234.044 354.674 233.57 355.886C233.106 357.098 232.874 358.443 232.874 359.92C232.874 361.436 233.111 362.776 233.585 363.94C234.067 365.096 234.778 366.005 235.715 366.668C236.662 367.321 237.836 367.648 239.238 367.648ZM258.272 357.875V371H254.92V349.182H258.158V352.591H258.442C258.954 351.483 259.73 350.593 260.772 349.92C261.814 349.239 263.158 348.898 264.806 348.898C266.283 348.898 267.576 349.201 268.684 349.807C269.792 350.403 270.654 351.312 271.269 352.534C271.885 353.746 272.192 355.28 272.192 357.136V371H268.84V357.364C268.84 355.65 268.395 354.314 267.505 353.358C266.615 352.392 265.393 351.909 263.84 351.909C262.77 351.909 261.814 352.141 260.971 352.605C260.138 353.069 259.479 353.746 258.996 354.636C258.513 355.527 258.272 356.606 258.272 357.875ZM287.466 371.455C285.364 371.455 283.55 370.991 282.026 370.062C280.51 369.125 279.341 367.818 278.517 366.142C277.703 364.456 277.295 362.496 277.295 360.261C277.295 358.027 277.703 356.057 278.517 354.352C279.341 352.638 280.487 351.303 281.955 350.347C283.432 349.381 285.155 348.898 287.125 348.898C288.261 348.898 289.384 349.087 290.491 349.466C291.599 349.845 292.608 350.46 293.517 351.312C294.426 352.155 295.151 353.273 295.69 354.665C296.23 356.057 296.5 357.771 296.5 359.807V361.227H279.682V358.33H293.091C293.091 357.098 292.845 356 292.352 355.034C291.869 354.068 291.178 353.306 290.278 352.747C289.388 352.188 288.337 351.909 287.125 351.909C285.79 351.909 284.634 352.241 283.659 352.903C282.693 353.557 281.95 354.409 281.429 355.46C280.908 356.511 280.648 357.638 280.648 358.841V360.773C280.648 362.42 280.932 363.817 281.5 364.963C282.078 366.099 282.878 366.966 283.901 367.562C284.923 368.15 286.112 368.443 287.466 368.443C288.347 368.443 289.142 368.32 289.852 368.074C290.572 367.818 291.192 367.439 291.713 366.938C292.234 366.426 292.636 365.792 292.92 365.034L296.159 365.943C295.818 367.042 295.245 368.008 294.44 368.841C293.635 369.665 292.641 370.309 291.457 370.773C290.274 371.227 288.943 371.455 287.466 371.455ZM301.599 371V349.182H304.838V352.477H305.065C305.463 351.398 306.183 350.522 307.224 349.849C308.266 349.177 309.44 348.841 310.747 348.841C310.993 348.841 311.301 348.846 311.67 348.855C312.04 348.865 312.319 348.879 312.509 348.898V352.307C312.395 352.278 312.134 352.236 311.727 352.179C311.33 352.113 310.908 352.08 310.463 352.08C309.402 352.08 308.455 352.302 307.622 352.747C306.798 353.183 306.145 353.789 305.662 354.565C305.188 355.332 304.952 356.208 304.952 357.193V371H301.599ZM336.255 365.886V347.136H339.437V365.886H336.255ZM328.471 358.102V354.92H347.221V358.102H328.471ZM381.713 349.182C381.543 347.742 380.851 346.625 379.639 345.83C378.427 345.034 376.94 344.636 375.179 344.636C373.891 344.636 372.764 344.845 371.798 345.261C370.842 345.678 370.094 346.251 369.554 346.98C369.024 347.709 368.759 348.538 368.759 349.466C368.759 350.242 368.943 350.91 369.312 351.469C369.691 352.018 370.174 352.477 370.761 352.847C371.348 353.206 371.964 353.505 372.608 353.741C373.252 353.969 373.844 354.153 374.384 354.295L377.338 355.091C378.096 355.29 378.938 355.564 379.866 355.915C380.804 356.265 381.699 356.743 382.551 357.349C383.413 357.946 384.123 358.713 384.682 359.651C385.241 360.588 385.52 361.739 385.52 363.102C385.52 364.674 385.108 366.095 384.284 367.364C383.47 368.633 382.277 369.641 380.705 370.389C379.142 371.137 377.243 371.511 375.009 371.511C372.925 371.511 371.121 371.175 369.597 370.503C368.081 369.83 366.888 368.893 366.017 367.69C365.155 366.488 364.668 365.091 364.554 363.5H368.19C368.285 364.598 368.654 365.508 369.298 366.227C369.952 366.937 370.776 367.468 371.77 367.818C372.774 368.159 373.853 368.33 375.009 368.33C376.353 368.33 377.561 368.112 378.631 367.676C379.701 367.231 380.548 366.616 381.173 365.83C381.798 365.034 382.111 364.106 382.111 363.045C382.111 362.08 381.841 361.294 381.301 360.688C380.761 360.081 380.051 359.589 379.17 359.21C378.29 358.831 377.338 358.5 376.315 358.216L372.736 357.193C370.463 356.54 368.664 355.607 367.338 354.395C366.012 353.183 365.349 351.597 365.349 349.636C365.349 348.008 365.79 346.587 366.67 345.375C367.561 344.153 368.754 343.206 370.25 342.534C371.756 341.852 373.437 341.511 375.293 341.511C377.168 341.511 378.834 341.848 380.293 342.52C381.751 343.183 382.906 344.092 383.759 345.247C384.62 346.402 385.075 347.714 385.122 349.182H381.713ZM408.698 349.182L400.63 371H397.221L389.153 349.182H392.789L398.812 366.568H399.039L405.062 349.182H408.698ZM421.489 371.455C419.387 371.455 417.574 370.991 416.049 370.062C414.534 369.125 413.364 367.818 412.54 366.142C411.726 364.456 411.319 362.496 411.319 360.261C411.319 358.027 411.726 356.057 412.54 354.352C413.364 352.638 414.51 351.303 415.978 350.347C417.455 349.381 419.179 348.898 421.148 348.898C422.285 348.898 423.407 349.087 424.515 349.466C425.623 349.845 426.631 350.46 427.54 351.312C428.45 352.155 429.174 353.273 429.714 354.665C430.254 356.057 430.523 357.771 430.523 359.807V361.227H413.705V358.33H427.114C427.114 357.098 426.868 356 426.376 355.034C425.893 354.068 425.201 353.306 424.302 352.747C423.412 352.188 422.361 351.909 421.148 351.909C419.813 351.909 418.658 352.241 417.683 352.903C416.717 353.557 415.973 354.409 415.452 355.46C414.932 356.511 414.671 357.638 414.671 358.841V360.773C414.671 362.42 414.955 363.817 415.523 364.963C416.101 366.099 416.901 366.966 417.924 367.562C418.947 368.15 420.135 368.443 421.489 368.443C422.37 368.443 423.165 368.32 423.876 368.074C424.595 367.818 425.216 367.439 425.737 366.938C426.257 366.426 426.66 365.792 426.944 365.034L430.183 365.943C429.842 367.042 429.269 368.008 428.464 368.841C427.659 369.665 426.665 370.309 425.481 370.773C424.297 371.227 422.967 371.455 421.489 371.455ZM438.975 341.909V371H435.623V341.909H438.975ZM454.604 349.182V352.023H443.297V349.182H454.604ZM446.592 343.955H449.945V364.75C449.945 365.697 450.082 366.407 450.357 366.881C450.641 367.345 451 367.657 451.436 367.818C451.881 367.97 452.35 368.045 452.842 368.045C453.212 368.045 453.515 368.027 453.751 367.989C453.988 367.941 454.178 367.903 454.32 367.875L455.001 370.886C454.774 370.972 454.457 371.057 454.05 371.142C453.643 371.237 453.126 371.284 452.501 371.284C451.554 371.284 450.626 371.08 449.717 370.673C448.818 370.266 448.07 369.646 447.473 368.812C446.886 367.979 446.592 366.928 446.592 365.659V343.955ZM468.56 371.455C466.457 371.455 464.644 370.991 463.119 370.062C461.604 369.125 460.435 367.818 459.611 366.142C458.796 364.456 458.389 362.496 458.389 360.261C458.389 358.027 458.796 356.057 459.611 354.352C460.435 352.638 461.58 351.303 463.048 350.347C464.526 349.381 466.249 348.898 468.219 348.898C469.355 348.898 470.477 349.087 471.585 349.466C472.693 349.845 473.702 350.46 474.611 351.312C475.52 352.155 476.244 353.273 476.784 354.665C477.324 356.057 477.594 357.771 477.594 359.807V361.227H460.776V358.33H474.185C474.185 357.098 473.938 356 473.446 355.034C472.963 354.068 472.272 353.306 471.372 352.747C470.482 352.188 469.431 351.909 468.219 351.909C466.884 351.909 465.728 352.241 464.753 352.903C463.787 353.557 463.044 354.409 462.523 355.46C462.002 356.511 461.741 357.638 461.741 358.841V360.773C461.741 362.42 462.026 363.817 462.594 364.963C463.171 366.099 463.972 366.966 464.994 367.562C466.017 368.15 467.205 368.443 468.56 368.443C469.44 368.443 470.236 368.32 470.946 368.074C471.666 367.818 472.286 367.439 472.807 366.938C473.328 366.426 473.73 365.792 474.014 365.034L477.253 365.943C476.912 367.042 476.339 368.008 475.534 368.841C474.729 369.665 473.735 370.309 472.551 370.773C471.367 371.227 470.037 371.455 468.56 371.455ZM483.148 371V341.909H486.67V356.341H487.011L500.08 341.909H504.682L492.466 355.034L504.682 371H500.42L490.307 357.477L486.67 361.568V371H483.148ZM510.154 371V349.182H513.506V371H510.154ZM511.859 345.545C511.205 345.545 510.642 345.323 510.168 344.878C509.704 344.433 509.472 343.898 509.472 343.273C509.472 342.648 509.704 342.113 510.168 341.668C510.642 341.223 511.205 341 511.859 341C512.512 341 513.071 341.223 513.535 341.668C514.008 342.113 514.245 342.648 514.245 343.273C514.245 343.898 514.008 344.433 513.535 344.878C513.071 345.323 512.512 345.545 511.859 345.545ZM529.135 349.182V352.023H517.828V349.182H529.135ZM521.124 343.955H524.476V364.75C524.476 365.697 524.613 366.407 524.888 366.881C525.172 367.345 525.532 367.657 525.967 367.818C526.412 367.97 526.881 368.045 527.374 368.045C527.743 368.045 528.046 368.027 528.283 367.989C528.519 367.941 528.709 367.903 528.851 367.875L529.533 370.886C529.305 370.972 528.988 371.057 528.581 371.142C528.174 371.237 527.658 371.284 527.033 371.284C526.086 371.284 525.158 371.08 524.249 370.673C523.349 370.266 522.601 369.646 522.004 368.812C521.417 367.979 521.124 366.928 521.124 365.659V343.955ZM554.859 371H545.882V341.909H555.257C558.079 341.909 560.494 342.491 562.501 343.656C564.509 344.812 566.048 346.473 567.118 348.642C568.188 350.801 568.723 353.386 568.723 356.398C568.723 359.428 568.183 362.037 567.104 364.224C566.024 366.402 564.452 368.079 562.388 369.253C560.323 370.418 557.814 371 554.859 371ZM549.405 367.875H554.632C557.037 367.875 559.031 367.411 560.612 366.483C562.194 365.555 563.373 364.234 564.149 362.52C564.926 360.806 565.314 358.765 565.314 356.398C565.314 354.049 564.93 352.027 564.163 350.332C563.396 348.628 562.25 347.321 560.726 346.412C559.201 345.493 557.303 345.034 555.03 345.034H549.405V367.875ZM583.325 371.455C581.223 371.455 579.41 370.991 577.885 370.062C576.37 369.125 575.2 367.818 574.376 366.142C573.562 364.456 573.155 362.496 573.155 360.261C573.155 358.027 573.562 356.057 574.376 354.352C575.2 352.638 576.346 351.303 577.814 350.347C579.291 349.381 581.015 348.898 582.984 348.898C584.121 348.898 585.243 349.087 586.351 349.466C587.459 349.845 588.467 350.46 589.376 351.312C590.286 352.155 591.01 353.273 591.55 354.665C592.089 356.057 592.359 357.771 592.359 359.807V361.227H575.541V358.33H588.95C588.95 357.098 588.704 356 588.212 355.034C587.729 354.068 587.037 353.306 586.138 352.747C585.248 352.188 584.196 351.909 582.984 351.909C581.649 351.909 580.494 352.241 579.518 352.903C578.553 353.557 577.809 354.409 577.288 355.46C576.768 356.511 576.507 357.638 576.507 358.841V360.773C576.507 362.42 576.791 363.817 577.359 364.963C577.937 366.099 578.737 366.966 579.76 367.562C580.783 368.15 581.971 368.443 583.325 368.443C584.206 368.443 585.001 368.32 585.712 368.074C586.431 367.818 587.052 367.439 587.572 366.938C588.093 366.426 588.496 365.792 588.78 365.034L592.018 365.943C591.678 367.042 591.105 368.008 590.3 368.841C589.495 369.665 588.5 370.309 587.317 370.773C586.133 371.227 584.803 371.455 583.325 371.455ZM614.636 349.182L606.567 371H603.158L595.09 349.182H598.727L604.749 366.568H604.977L610.999 349.182H614.636ZM627.427 371.455C625.325 371.455 623.511 370.991 621.987 370.062C620.471 369.125 619.302 367.818 618.478 366.142C617.664 364.456 617.256 362.496 617.256 360.261C617.256 358.027 617.664 356.057 618.478 354.352C619.302 352.638 620.448 351.303 621.915 350.347C623.393 349.381 625.116 348.898 627.086 348.898C628.222 348.898 629.344 349.087 630.452 349.466C631.56 349.845 632.569 350.46 633.478 351.312C634.387 352.155 635.112 353.273 635.651 354.665C636.191 356.057 636.461 357.771 636.461 359.807V361.227H619.643V358.33H633.052C633.052 357.098 632.806 356 632.313 355.034C631.83 354.068 631.139 353.306 630.239 352.747C629.349 352.188 628.298 351.909 627.086 351.909C625.751 351.909 624.595 352.241 623.62 352.903C622.654 353.557 621.911 354.409 621.39 355.46C620.869 356.511 620.609 357.638 620.609 358.841V360.773C620.609 362.42 620.893 363.817 621.461 364.963C622.039 366.099 622.839 366.966 623.862 367.562C624.884 368.15 626.073 368.443 627.427 368.443C628.308 368.443 629.103 368.32 629.813 368.074C630.533 367.818 631.153 367.439 631.674 366.938C632.195 366.426 632.597 365.792 632.881 365.034L636.12 365.943C635.779 367.042 635.206 368.008 634.401 368.841C633.596 369.665 632.602 370.309 631.418 370.773C630.235 371.227 628.904 371.455 627.427 371.455ZM644.913 341.909V371H641.56V341.909H644.913ZM659.916 371.455C657.946 371.455 656.218 370.986 654.732 370.048C653.254 369.111 652.099 367.799 651.266 366.114C650.442 364.428 650.03 362.458 650.03 360.205C650.03 357.932 650.442 355.948 651.266 354.253C652.099 352.558 653.254 351.241 654.732 350.304C656.218 349.366 657.946 348.898 659.916 348.898C661.886 348.898 663.609 349.366 665.087 350.304C666.573 351.241 667.729 352.558 668.553 354.253C669.386 355.948 669.803 357.932 669.803 360.205C669.803 362.458 669.386 364.428 668.553 366.114C667.729 367.799 666.573 369.111 665.087 370.048C663.609 370.986 661.886 371.455 659.916 371.455ZM659.916 368.443C661.412 368.443 662.643 368.06 663.609 367.293C664.575 366.526 665.29 365.517 665.754 364.267C666.218 363.017 666.45 361.663 666.45 360.205C666.45 358.746 666.218 357.387 665.754 356.128C665.29 354.868 664.575 353.85 663.609 353.074C662.643 352.297 661.412 351.909 659.916 351.909C658.42 351.909 657.189 352.297 656.223 353.074C655.257 353.85 654.542 354.868 654.078 356.128C653.614 357.387 653.382 358.746 653.382 360.205C653.382 361.663 653.614 363.017 654.078 364.267C654.542 365.517 655.257 366.526 656.223 367.293C657.189 368.06 658.42 368.443 659.916 368.443ZM674.92 379.182V349.182H678.158V352.648H678.556C678.802 352.269 679.143 351.786 679.579 351.199C680.024 350.602 680.658 350.072 681.482 349.608C682.316 349.134 683.442 348.898 684.863 348.898C686.7 348.898 688.319 349.357 689.721 350.276C691.122 351.194 692.216 352.496 693.002 354.182C693.788 355.867 694.181 357.856 694.181 360.148C694.181 362.458 693.788 364.461 693.002 366.156C692.216 367.842 691.127 369.149 689.735 370.077C688.343 370.995 686.738 371.455 684.92 371.455C683.518 371.455 682.396 371.223 681.553 370.759C680.71 370.285 680.062 369.75 679.607 369.153C679.153 368.547 678.802 368.045 678.556 367.648H678.272V379.182H674.92ZM678.215 360.091C678.215 361.739 678.457 363.192 678.94 364.452C679.423 365.702 680.128 366.682 681.056 367.392C681.984 368.093 683.121 368.443 684.465 368.443C685.867 368.443 687.036 368.074 687.974 367.335C688.921 366.587 689.631 365.583 690.104 364.324C690.587 363.055 690.829 361.644 690.829 360.091C690.829 358.557 690.592 357.174 690.119 355.943C689.655 354.703 688.949 353.723 688.002 353.003C687.065 352.274 685.886 351.909 684.465 351.909C683.102 351.909 681.956 352.255 681.028 352.946C680.1 353.628 679.399 354.584 678.925 355.815C678.452 357.037 678.215 358.462 678.215 360.091ZM708.442 371.455C706.34 371.455 704.527 370.991 703.002 370.062C701.487 369.125 700.317 367.818 699.494 366.142C698.679 364.456 698.272 362.496 698.272 360.261C698.272 358.027 698.679 356.057 699.494 354.352C700.317 352.638 701.463 351.303 702.931 350.347C704.408 349.381 706.132 348.898 708.102 348.898C709.238 348.898 710.36 349.087 711.468 349.466C712.576 349.845 713.585 350.46 714.494 351.312C715.403 352.155 716.127 353.273 716.667 354.665C717.207 356.057 717.477 357.771 717.477 359.807V361.227H700.658V358.33H714.067C714.067 357.098 713.821 356 713.329 355.034C712.846 354.068 712.155 353.306 711.255 352.747C710.365 352.188 709.314 351.909 708.102 351.909C706.766 351.909 705.611 352.241 704.636 352.903C703.67 353.557 702.926 354.409 702.406 355.46C701.885 356.511 701.624 357.638 701.624 358.841V360.773C701.624 362.42 701.908 363.817 702.477 364.963C703.054 366.099 703.854 366.966 704.877 367.562C705.9 368.15 707.088 368.443 708.442 368.443C709.323 368.443 710.119 368.32 710.829 368.074C711.549 367.818 712.169 367.439 712.69 366.938C713.21 366.426 713.613 365.792 713.897 365.034L717.136 365.943C716.795 367.042 716.222 368.008 715.417 368.841C714.612 369.665 713.618 370.309 712.434 370.773C711.25 371.227 709.92 371.455 708.442 371.455ZM722.576 371V349.182H725.815V352.477H726.042C726.44 351.398 727.159 350.522 728.201 349.849C729.243 349.177 730.417 348.841 731.724 348.841C731.97 348.841 732.278 348.846 732.647 348.855C733.016 348.865 733.296 348.879 733.485 348.898V352.307C733.371 352.278 733.111 352.236 732.704 352.179C732.306 352.113 731.885 352.08 731.44 352.08C730.379 352.08 729.432 352.302 728.599 352.747C727.775 353.183 727.121 353.789 726.638 354.565C726.165 355.332 725.928 356.208 725.928 357.193V371H722.576Z" fill="#262422"/>
<path d="M26.8182 59.5V36.2273H34.9545C36.5758 36.2273 37.9129 36.5076 38.9659 37.0682C40.0189 37.6212 40.803 38.3674 41.3182 39.3068C41.8333 40.2386 42.0909 41.2727 42.0909 42.4091C42.0909 43.4091 41.9129 44.2348 41.5568 44.8864C41.2083 45.5379 40.7462 46.053 40.1705 46.4318C39.6023 46.8106 38.9848 47.0909 38.3182 47.2727V47.5C39.0303 47.5455 39.7462 47.7955 40.4659 48.25C41.1856 48.7045 41.7879 49.3561 42.2727 50.2045C42.7576 51.053 43 52.0909 43 53.3182C43 54.4848 42.7348 55.5341 42.2045 56.4659C41.6742 57.3977 40.8371 58.1364 39.6932 58.6818C38.5492 59.2273 37.0606 59.5 35.2273 59.5H26.8182ZM29.6364 57H35.2273C37.0682 57 38.375 56.6439 39.1477 55.9318C39.928 55.2121 40.3182 54.3409 40.3182 53.3182C40.3182 52.5303 40.1174 51.803 39.7159 51.1364C39.3144 50.4621 38.7424 49.9242 38 49.5227C37.2576 49.1136 36.3788 48.9091 35.3636 48.9091H29.6364V57ZM29.6364 46.4545H34.8636C35.7121 46.4545 36.4773 46.2879 37.1591 45.9545C37.8485 45.6212 38.3939 45.1515 38.7955 44.5455C39.2045 43.9394 39.4091 43.2273 39.4091 42.4091C39.4091 41.3864 39.053 40.5189 38.3409 39.8068C37.6288 39.0871 36.5 38.7273 34.9545 38.7273H29.6364V46.4545ZM58.267 52.3636V42.0455H60.9489V59.5H58.267V56.5455H58.0852C57.6761 57.4318 57.0398 58.1856 56.1761 58.8068C55.3125 59.4205 54.2216 59.7273 52.9034 59.7273C51.8125 59.7273 50.8428 59.4886 49.9943 59.0114C49.1458 58.5265 48.4792 57.7992 47.9943 56.8295C47.5095 55.8523 47.267 54.6212 47.267 53.1364V42.0455H49.9489V52.9545C49.9489 54.2273 50.3049 55.2424 51.017 56C51.7367 56.7576 52.6534 57.1364 53.767 57.1364C54.4337 57.1364 55.1117 56.9659 55.8011 56.625C56.4981 56.2841 57.0814 55.7614 57.5511 55.0568C58.0284 54.3523 58.267 53.4545 58.267 52.3636ZM65.8608 59.5V42.0455H68.5426V59.5H65.8608ZM67.2244 39.1364C66.7017 39.1364 66.2509 38.9583 65.8722 38.6023C65.5009 38.2462 65.3153 37.8182 65.3153 37.3182C65.3153 36.8182 65.5009 36.3902 65.8722 36.0341C66.2509 35.678 66.7017 35.5 67.2244 35.5C67.7472 35.5 68.1941 35.678 68.5653 36.0341C68.9441 36.3902 69.1335 36.8182 69.1335 37.3182C69.1335 37.8182 68.9441 38.2462 68.5653 38.6023C68.1941 38.9583 67.7472 39.1364 67.2244 39.1364ZM76.1364 36.2273V59.5H73.4545V36.2273H76.1364ZM88.6392 42.0455V44.3182H79.5938V42.0455H88.6392ZM82.2301 37.8636H84.9119V54.5C84.9119 55.2576 85.0218 55.8258 85.2415 56.2045C85.4688 56.5758 85.7566 56.8258 86.1051 56.9545C86.4612 57.0758 86.8362 57.1364 87.2301 57.1364C87.5256 57.1364 87.768 57.1212 87.9574 57.0909C88.1468 57.053 88.2983 57.0227 88.4119 57L88.9574 59.4091C88.7756 59.4773 88.5218 59.5455 88.196 59.6136C87.8703 59.6894 87.4574 59.7273 86.9574 59.7273C86.1998 59.7273 85.4574 59.5644 84.7301 59.2386C84.0104 58.9129 83.4119 58.4167 82.9347 57.75C82.465 57.0833 82.2301 56.2424 82.2301 55.2273V37.8636ZM105.628 59.5L100.31 42.0455H103.128L106.901 55.4091H107.082L110.81 42.0455H113.673L117.355 55.3636H117.537L121.31 42.0455H124.128L118.81 59.5H116.173L112.355 46.0909H112.082L108.264 59.5H105.628ZM127.673 59.5V42.0455H130.355V59.5H127.673ZM129.037 39.1364C128.514 39.1364 128.063 38.9583 127.685 38.6023C127.313 38.2462 127.128 37.8182 127.128 37.3182C127.128 36.8182 127.313 36.3902 127.685 36.0341C128.063 35.678 128.514 35.5 129.037 35.5C129.56 35.5 130.007 35.678 130.378 36.0341C130.757 36.3902 130.946 36.8182 130.946 37.3182C130.946 37.8182 130.757 38.2462 130.378 38.6023C130.007 38.9583 129.56 39.1364 129.037 39.1364ZM142.858 42.0455V44.3182H133.812V42.0455H142.858ZM136.449 37.8636H139.131V54.5C139.131 55.2576 139.241 55.8258 139.46 56.2045C139.688 56.5758 139.975 56.8258 140.324 56.9545C140.68 57.0758 141.055 57.1364 141.449 57.1364C141.744 57.1364 141.987 57.1212 142.176 57.0909C142.366 57.053 142.517 57.0227 142.631 57L143.176 59.4091C142.994 59.4773 142.741 59.5455 142.415 59.6136C142.089 59.6894 141.676 59.7273 141.176 59.7273C140.419 59.7273 139.676 59.5644 138.949 59.2386C138.229 58.9129 137.631 58.4167 137.153 57.75C136.684 57.0833 136.449 56.2424 136.449 55.2273V37.8636ZM149.949 49V59.5H147.267V36.2273H149.949V44.7727H150.176C150.585 43.8712 151.199 43.1553 152.017 42.625C152.843 42.0871 153.941 41.8182 155.312 41.8182C156.502 41.8182 157.544 42.0568 158.438 42.5341C159.331 43.0038 160.025 43.7273 160.517 44.7045C161.017 45.6742 161.267 46.9091 161.267 48.4091V59.5H158.585V48.5909C158.585 47.2045 158.225 46.1326 157.506 45.375C156.794 44.6098 155.805 44.2273 154.54 44.2273C153.661 44.2273 152.873 44.4129 152.176 44.7841C151.487 45.1553 150.941 45.697 150.54 46.4091C150.146 47.1212 149.949 47.9848 149.949 49Z" fill="#262422"/>
<g clip-path="url(#clip1_305_584)">
<path d="M403.823 60.6209L396.66 47.3113L392.15 52.7666V60.6214H388.368V35.1652H392.15V47.4929L401.969 35.1652H406.333L399.206 44.111L408.261 60.6209H403.823ZM416.441 60.6209V35.1652H420.223V60.6209H416.441ZM439.933 38.8028V60.6219H436.151V38.8017H428.951V35.1652H447.133V38.8017H439.933V38.8028Z" fill="#8D8D93"/>
<path d="M243.761 61.0576C241.687 61.1097 239.647 60.5329 237.907 59.4031C236.281 58.3311 235.074 56.7324 234.488 54.8755L238.052 53.5664C238.546 54.7063 239.353 55.6828 240.379 56.3828C241.421 57.081 242.652 57.4428 243.906 57.4195C245.112 57.4823 246.302 57.1221 247.271 56.401C247.692 56.0473 248.024 55.6002 248.242 55.0952C248.46 54.5902 248.557 54.0414 248.525 53.4923C248.53 52.9806 248.411 52.4752 248.18 52.019C247.978 51.611 247.714 51.2368 247.397 50.9097C246.997 50.5454 246.544 50.2448 246.052 50.0186C245.446 49.716 244.943 49.4859 244.543 49.3278C243.96 49.103 243.372 48.8908 242.779 48.6913C241.809 48.3522 241.082 48.0856 240.598 47.8915C239.941 47.6121 239.303 47.2902 238.688 46.9278C238.026 46.5766 237.425 46.1222 236.906 45.5817C236.458 45.0546 236.096 44.4593 235.834 43.8183C235.331 42.5961 235.226 41.2468 235.532 39.9613C235.838 38.6757 236.541 37.519 237.541 36.6548C238.995 35.3703 240.971 34.7275 243.468 34.7275C245.553 34.7275 247.268 35.1882 248.614 36.109C249.92 36.9774 250.879 38.2777 251.323 39.7821L247.832 40.9456C247.481 40.1578 246.889 39.5019 246.141 39.073C245.236 38.5709 244.212 38.3256 243.178 38.3635C242.163 38.3053 241.158 38.587 240.322 39.1638C239.981 39.4286 239.708 39.7719 239.528 40.1645C239.348 40.557 239.265 40.9873 239.286 41.4188C239.289 41.7495 239.362 42.0759 239.5 42.3767C239.638 42.6774 239.837 42.9457 240.086 43.164C240.569 43.6397 241.136 44.0218 241.759 44.291C242.341 44.5336 243.227 44.8607 244.414 45.2729C245.14 45.54 245.68 45.7398 246.031 45.8729C246.384 46.0059 246.899 46.2297 247.577 46.5454C248.121 46.786 248.644 47.0715 249.141 47.399C249.586 47.7186 250.011 48.0646 250.414 48.4351C250.852 48.816 251.227 49.2637 251.523 49.7624C251.806 50.2799 252.025 50.8292 252.178 51.3986C252.363 52.0679 252.455 52.7597 252.451 53.4543C252.451 55.8297 251.639 57.6908 250.014 59.0353C248.39 60.3803 246.305 61.0544 243.761 61.0576ZM267.071 60.6214L258.343 35.1652H262.416L268.198 52.9111C268.517 53.8658 268.784 54.8371 268.998 55.8209C269.211 54.8369 269.478 53.8654 269.798 52.9111L275.507 35.1652H279.544L270.852 60.6209L267.071 60.6214ZM287.253 60.6214V35.1652H303.035V38.7287H291.035V45.7111H298.78V49.2746H291.035V57.0574H303.837V60.6219L287.253 60.6214ZM313.471 60.6214V35.1652H317.254V56.9843H329.69V60.6209L313.471 60.6214ZM343.944 38.8023V60.6214H340.162V38.8017H332.962V35.1652H351.145V38.8017H343.945L343.944 38.8023ZM358.961 60.6214V35.1652H374.744V38.7287H362.745V45.7111H370.49V49.2746H362.745V57.0574H375.547V60.6219L358.961 60.6214Z" fill="#4A4A55"/>
<path d="M217.237 30.3245C212.799 23.9723 204.034 22.0883 197.696 26.1271L186.566 33.2212C185.062 34.1671 183.772 35.4165 182.779 36.8893C181.786 38.3621 181.111 40.026 180.797 41.7746C180.266 44.7196 180.732 47.7577 182.122 50.4078C181.169 51.8531 180.52 53.4766 180.213 55.1801C179.895 56.9638 179.938 58.7928 180.337 60.56C180.736 62.3271 181.484 63.9967 182.537 65.4709C186.975 71.8236 195.741 73.7071 202.078 69.6678L213.208 62.5737C214.712 61.6279 216.001 60.3787 216.995 58.9059C217.988 57.4332 218.663 55.7694 218.977 54.0208C219.508 51.0756 219.042 48.0375 217.652 45.3871C218.604 43.9419 219.254 42.3186 219.561 40.6153C219.878 38.8316 219.836 37.0025 219.437 35.2353C219.038 33.4682 218.29 31.7986 217.237 30.3245Z" fill="#FF3E00"/>
<path d="M196.609 66.0689C194.857 66.5243 193.008 66.4312 191.311 65.8022C189.614 65.1731 188.15 64.0384 187.119 62.5513C186.486 61.6649 186.036 60.6609 185.796 59.5984C185.556 58.5358 185.53 57.436 185.721 56.3635C185.785 56.0118 185.874 55.6643 185.987 55.3247L186.196 54.6845L186.767 55.1029C188.083 56.071 189.555 56.8072 191.119 57.2796L191.533 57.4049L191.495 57.8181C191.444 58.4054 191.603 58.9917 191.943 59.473C192.254 59.9212 192.695 60.2633 193.206 60.4529C193.717 60.6425 194.275 60.6705 194.802 60.5332C195.044 60.4691 195.275 60.3685 195.486 60.2348L206.617 53.1386C206.889 52.9671 207.123 52.7407 207.303 52.4739C207.483 52.2071 207.605 51.9058 207.662 51.589C207.719 51.2657 207.711 50.9343 207.639 50.614C207.567 50.2938 207.431 49.9911 207.241 49.7238C206.93 49.2756 206.489 48.9335 205.978 48.7437C205.467 48.5539 204.909 48.5256 204.382 48.6626C204.14 48.7266 203.909 48.8272 203.698 48.961L199.451 51.6689C198.752 52.1129 197.989 52.4476 197.189 52.6612C195.438 53.1165 193.589 53.0234 191.892 52.3943C190.195 51.7653 188.732 50.6307 187.7 49.1436C187.067 48.2573 186.617 47.2534 186.377 46.1908C186.137 45.1282 186.111 44.0284 186.302 42.9558C186.491 41.9043 186.898 40.9039 187.496 40.0185C188.094 39.1332 188.87 38.3823 189.774 37.8141L200.904 30.72C201.603 30.2752 202.366 29.94 203.166 29.7261C204.918 29.2707 206.767 29.3638 208.464 29.9928C210.161 30.6219 211.624 31.7566 212.655 33.2436C213.289 34.13 213.738 35.134 213.978 36.1965C214.219 37.2591 214.244 38.3589 214.054 39.4315C213.988 39.7839 213.899 40.1315 213.786 40.4718L213.576 41.113L213.006 40.6956C211.69 39.7275 210.218 38.9913 208.654 38.5189L208.239 38.3937L208.278 37.9805C208.328 37.3932 208.169 36.8071 207.829 36.3255C207.519 35.8777 207.078 35.536 206.567 35.3464C206.056 35.1568 205.5 35.1285 204.972 35.2654C204.73 35.3294 204.5 35.43 204.289 35.5638L193.158 42.6569C192.886 42.8283 192.652 43.0547 192.472 43.3215C192.292 43.5883 192.17 43.8897 192.113 44.2064C192.056 44.5297 192.063 44.8611 192.135 45.1813C192.208 45.5016 192.343 45.8043 192.533 46.0716C192.844 46.5198 193.285 46.8619 193.796 47.0516C194.307 47.2414 194.865 47.2698 195.393 47.1329C195.634 47.0686 195.865 46.968 196.076 46.8344L200.322 44.1276C201.021 43.6828 201.784 43.3478 202.584 43.1342C204.335 42.679 206.184 42.772 207.88 43.4007C209.577 44.0293 211.04 45.1634 212.071 46.6497C212.705 47.5361 213.155 48.54 213.395 49.6026C213.635 50.6652 213.66 51.765 213.47 52.8375C213.281 53.8892 212.875 54.8899 212.278 55.7757C211.68 56.6615 210.904 57.4129 210 57.9819L198.87 65.0744C198.171 65.5193 197.409 65.8545 196.609 66.0683" fill="white"/>
</g>
<path d="M1919.64 72.9416C1869.15 -0.37089 1770.32 -21.5625 1694.21 24.6114L1565.46 106.463C1548.06 117.364 1533.14 131.806 1521.69 148.848C1510.23 165.891 1502.49 185.153 1498.97 205.383C1492.71 239.376 1498.13 274.485 1514.35 305.01C1503.27 321.661 1495.82 340.46 1492.5 360.18C1488.86 380.744 1489.34 401.827 1493.93 422.202C1498.51 442.577 1507.1 461.836 1519.2 478.86C1569.77 552 1668.34 573.291 1744.61 527.643L1873.46 445.705C1890.8 434.759 1905.65 420.3 1917.06 403.262C1928.46 386.224 1936.17 366.985 1939.68 346.785C1945.86 312.897 1940.41 277.914 1924.22 247.512C1958.45 193.795 1956.65 124.692 1919.64 72.9416ZM1681.36 485.963C1661.13 491.219 1639.78 490.136 1620.2 482.86C1600.61 475.584 1583.73 462.467 1571.84 445.283C1556.92 424.613 1551.45 399.092 1555.76 373.756L1558.28 361.543L1560.61 353.996L1567.53 358.576C1582.71 370.081 1599.7 378.336 1617.85 383.912L1622.52 385.529L1621.99 390.13C1621.54 396.513 1623.42 403.689 1627.11 409.166C1634.66 420.033 1647.78 425.251 1660.44 421.831C1663.21 420.939 1665.93 420.029 1668.25 418.58L1796.56 336.746C1803.03 332.602 1807.16 326.405 1808.78 319.039C1810.19 311.393 1808.32 303.578 1804.18 297.39C1796.53 286.781 1783.51 282.016 1770.86 285.181C1768.08 286.156 1765.11 287.251 1762.75 288.683L1714.24 319.496C1668.34 346.785 1609.04 333.964 1578.57 290.033C1571.23 279.796 1566.02 268.192 1563.24 255.907C1560.46 243.621 1560.17 230.904 1562.4 218.506C1564.62 206.232 1569.4 194.562 1576.43 184.254C1583.45 173.946 1592.56 165.23 1603.17 158.67L1731.22 76.8185C1739.31 71.7815 1748.01 68.1073 1757.45 65.3128C1798.87 54.5316 1842.52 70.7897 1866.96 105.824C1875.47 117.803 1881.08 131.593 1883.36 146.108C1885.64 160.624 1884.52 175.469 1880.08 189.478L1877.74 197.111L1871.11 192.532C1855.78 181.32 1838.69 172.756 1820.53 167.196L1815.94 165.846L1816.39 161.249C1816.85 154.508 1814.96 147.418 1811.27 141.929C1803.71 131.061 1790.6 126.477 1777.95 129.711C1775.17 130.621 1772.46 131.514 1770.13 132.963L1641.56 215.526C1635.1 219.838 1630.96 225.85 1629.61 233.397C1628.26 240.758 1630.06 248.844 1634.2 254.774C1641.57 265.659 1654.95 270.238 1667.36 266.987C1670.32 266.094 1673.1 265.201 1675.36 263.752L1724.41 232.47C1732.42 227.182 1741.39 223.327 1750.58 220.796C1792.27 209.928 1835.75 226.29 1860.09 261.497C1875.01 282.167 1880.76 307.671 1876.61 332.74C1874.49 344.982 1869.81 356.638 1862.87 366.948C1855.94 377.258 1846.91 385.989 1836.37 392.571L1708.05 474.246C1699.71 479.288 1690.74 483.213 1681.37 485.92L1681.36 485.963Z" fill="#FFD63D"/>
</g>
<defs>
<clipPath id="clip0_305_584">
<rect width="1949" height="552" fill="white"/>
</clipPath>
<clipPath id="clip1_305_584">
<rect width="267.135" height="48" fill="white" transform="translate(180 24)"/>
</clipPath>
</defs>
</svg>
