<svg width="1949" height="552" viewBox="0 0 1949 552" fill="none" xmlns="http://www.w3.org/2000/svg">
<g clip-path="url(#clip0_305_584)">
<rect width="1949" height="552" rx="24" fill="#FFBB00"/>
<path d="M109.682 197.909V291H94.6818L50.8182 227.591H50.0455V291H33.1818V197.909H48.2727L92.0909 261.364H92.9091V197.909H109.682ZM157.693 318.636C151.784 318.636 146.708 317.833 142.466 316.227C138.223 314.652 134.814 312.53 132.239 309.864C129.663 307.197 127.875 304.242 126.875 301L141.693 297.409C142.36 298.773 143.33 300.121 144.602 301.455C145.875 302.818 147.587 303.939 149.739 304.818C151.92 305.727 154.663 306.182 157.966 306.182C162.633 306.182 166.496 305.045 169.557 302.773C172.617 300.53 174.148 296.833 174.148 291.682V278.455H173.33C172.481 280.152 171.239 281.894 169.602 283.682C167.996 285.47 165.86 286.97 163.193 288.182C160.557 289.394 157.239 290 153.239 290C147.875 290 143.011 288.742 138.648 286.227C134.314 283.682 130.86 279.894 128.284 274.864C125.739 269.803 124.466 263.47 124.466 255.864C124.466 248.197 125.739 241.727 128.284 236.455C130.86 231.152 134.33 227.136 138.693 224.409C143.057 221.652 147.92 220.273 153.284 220.273C157.375 220.273 160.739 220.97 163.375 222.364C166.042 223.727 168.163 225.379 169.739 227.318C171.314 229.227 172.511 231.03 173.33 232.727H174.239V221.182H190.466V292.136C190.466 298.106 189.042 303.045 186.193 306.955C183.345 310.864 179.451 313.788 174.511 315.727C169.572 317.667 163.966 318.636 157.693 318.636ZM157.83 277.091C161.314 277.091 164.284 276.242 166.739 274.545C169.193 272.848 171.057 270.409 172.33 267.227C173.602 264.045 174.239 260.227 174.239 255.773C174.239 251.379 173.602 247.53 172.33 244.227C171.087 240.924 169.239 238.364 166.784 236.545C164.36 234.697 161.375 233.773 157.83 233.773C154.163 233.773 151.102 234.727 148.648 236.636C146.193 238.545 144.345 241.167 143.102 244.5C141.86 247.803 141.239 251.561 141.239 255.773C141.239 260.045 141.86 263.788 143.102 267C144.375 270.182 146.239 272.667 148.693 274.455C151.178 276.212 154.223 277.091 157.83 277.091ZM251.83 261.636V221.182H268.284V291H252.33V278.591H251.602C250.027 282.5 247.436 285.697 243.83 288.182C240.254 290.667 235.845 291.909 230.602 291.909C226.027 291.909 221.981 290.894 218.466 288.864C214.981 286.803 212.254 283.818 210.284 279.909C208.314 275.97 207.33 271.212 207.33 265.636V221.182H223.784V263.091C223.784 267.515 224.996 271.03 227.42 273.636C229.845 276.242 233.027 277.545 236.966 277.545C239.39 277.545 241.739 276.955 244.011 275.773C246.284 274.591 248.148 272.833 249.602 270.5C251.087 268.136 251.83 265.182 251.83 261.636ZM295.432 317.182C293.189 317.182 291.114 317 289.205 316.636C287.326 316.303 285.826 315.909 284.705 315.455L288.523 302.636C290.917 303.333 293.053 303.667 294.932 303.636C296.811 303.606 298.462 303.015 299.886 301.864C301.341 300.742 302.568 298.864 303.568 296.227L304.977 292.455L279.659 221.182H297.114L313.205 273.909H313.932L330.068 221.182H347.568L319.614 299.455C318.311 303.152 316.583 306.318 314.432 308.955C312.28 311.621 309.644 313.652 306.523 315.045C303.432 316.47 299.735 317.182 295.432 317.182ZM387.489 292.364C380.489 292.364 374.443 290.909 369.352 288C364.292 285.061 360.398 280.909 357.67 275.545C354.943 270.152 353.58 263.803 353.58 256.5C353.58 249.318 354.943 243.015 357.67 237.591C360.428 232.136 364.277 227.894 369.216 224.864C374.155 221.803 379.958 220.273 386.625 220.273C390.928 220.273 394.989 220.97 398.807 222.364C402.655 223.727 406.049 225.848 408.989 228.727C411.958 231.606 414.292 235.273 415.989 239.727C417.686 244.152 418.534 249.424 418.534 255.545V260.591H361.307V249.5H402.761C402.731 246.348 402.049 243.545 400.716 241.091C399.383 238.606 397.519 236.652 395.125 235.227C392.761 233.803 390.004 233.091 386.852 233.091C383.489 233.091 380.534 233.909 377.989 235.545C375.443 237.152 373.458 239.273 372.034 241.909C370.64 244.515 369.928 247.379 369.898 250.5V260.182C369.898 264.242 370.64 267.727 372.125 270.636C373.61 273.515 375.686 275.727 378.352 277.273C381.019 278.788 384.14 279.545 387.716 279.545C390.11 279.545 392.277 279.212 394.216 278.545C396.155 277.848 397.837 276.833 399.261 275.5C400.686 274.167 401.761 272.515 402.489 270.545L417.852 272.273C416.883 276.333 415.034 279.879 412.307 282.909C409.61 285.909 406.155 288.242 401.943 289.909C397.731 291.545 392.913 292.364 387.489 292.364ZM448.909 250.091V291H432.455V221.182H448.182V233.045H449C450.606 229.136 453.167 226.03 456.682 223.727C460.227 221.424 464.606 220.273 469.818 220.273C474.636 220.273 478.833 221.303 482.409 223.364C486.015 225.424 488.803 228.409 490.773 232.318C492.773 236.227 493.758 240.97 493.727 246.545V291H477.273V249.091C477.273 244.424 476.061 240.773 473.636 238.136C471.242 235.5 467.924 234.182 463.682 234.182C460.803 234.182 458.242 234.818 456 236.091C453.788 237.333 452.045 239.136 450.773 241.5C449.53 243.864 448.909 246.727 448.909 250.091ZM574.477 291H542.932V197.909H575.114C584.356 197.909 592.295 199.773 598.932 203.5C605.598 207.197 610.72 212.515 614.295 219.455C617.871 226.394 619.659 234.697 619.659 244.364C619.659 254.061 617.856 262.394 614.25 269.364C610.674 276.333 605.508 281.682 598.75 285.409C592.023 289.136 583.932 291 574.477 291ZM559.795 276.409H573.659C580.144 276.409 585.553 275.227 589.886 272.864C594.22 270.47 597.477 266.909 599.659 262.182C601.841 257.424 602.932 251.485 602.932 244.364C602.932 237.242 601.841 231.333 599.659 226.636C597.477 221.909 594.25 218.379 589.977 216.045C585.735 213.682 580.462 212.5 574.159 212.5H559.795V276.409ZM655.045 292.409C650.621 292.409 646.636 291.621 643.091 290.045C639.576 288.439 636.788 286.076 634.727 282.955C632.697 279.833 631.682 275.985 631.682 271.409C631.682 267.47 632.409 264.212 633.864 261.636C635.318 259.061 637.303 257 639.818 255.455C642.333 253.909 645.167 252.742 648.318 251.955C651.5 251.136 654.788 250.545 658.182 250.182C662.273 249.758 665.591 249.379 668.136 249.045C670.682 248.682 672.53 248.136 673.682 247.409C674.864 246.652 675.455 245.485 675.455 243.909V243.636C675.455 240.212 674.439 237.561 672.409 235.682C670.379 233.803 667.455 232.864 663.636 232.864C659.606 232.864 656.409 233.742 654.045 235.5C651.712 237.258 650.136 239.333 649.318 241.727L633.955 239.545C635.167 235.303 637.167 231.758 639.955 228.909C642.742 226.03 646.152 223.879 650.182 222.455C654.212 221 658.667 220.273 663.545 220.273C666.909 220.273 670.258 220.667 673.591 221.455C676.924 222.242 679.97 223.545 682.727 225.364C685.485 227.152 687.697 229.591 689.364 232.682C691.061 235.773 691.909 239.636 691.909 244.273V291H676.091V281.409H675.545C674.545 283.348 673.136 285.167 671.318 286.864C669.53 288.53 667.273 289.879 664.545 290.909C661.848 291.909 658.682 292.409 655.045 292.409ZM659.318 280.318C662.621 280.318 665.485 279.667 667.909 278.364C670.333 277.03 672.197 275.273 673.5 273.091C674.833 270.909 675.5 268.53 675.5 265.955V257.727C674.985 258.152 674.106 258.545 672.864 258.909C671.652 259.273 670.288 259.591 668.773 259.864C667.258 260.136 665.758 260.379 664.273 260.591C662.788 260.803 661.5 260.985 660.409 261.136C657.955 261.47 655.758 262.015 653.818 262.773C651.879 263.53 650.348 264.591 649.227 265.955C648.106 267.288 647.545 269.015 647.545 271.136C647.545 274.167 648.652 276.455 650.864 278C653.076 279.545 655.894 280.318 659.318 280.318ZM724.909 250.091V291H708.455V221.182H724.182V233.045H725C726.606 229.136 729.167 226.03 732.682 223.727C736.227 221.424 740.606 220.273 745.818 220.273C750.636 220.273 754.833 221.303 758.409 223.364C762.015 225.424 764.803 228.409 766.773 232.318C768.773 236.227 769.758 240.97 769.727 246.545V291H753.273V249.091C753.273 244.424 752.061 240.773 749.636 238.136C747.242 235.5 743.924 234.182 739.682 234.182C736.803 234.182 734.242 234.818 732 236.091C729.788 237.333 728.045 239.136 726.773 241.5C725.53 243.864 724.909 246.727 724.909 250.091ZM816.818 318.636C810.909 318.636 805.833 317.833 801.591 316.227C797.348 314.652 793.939 312.53 791.364 309.864C788.788 307.197 787 304.242 786 301L800.818 297.409C801.485 298.773 802.455 300.121 803.727 301.455C805 302.818 806.712 303.939 808.864 304.818C811.045 305.727 813.788 306.182 817.091 306.182C821.758 306.182 825.621 305.045 828.682 302.773C831.742 300.53 833.273 296.833 833.273 291.682V278.455H832.455C831.606 280.152 830.364 281.894 828.727 283.682C827.121 285.47 824.985 286.97 822.318 288.182C819.682 289.394 816.364 290 812.364 290C807 290 802.136 288.742 797.773 286.227C793.439 283.682 789.985 279.894 787.409 274.864C784.864 269.803 783.591 263.47 783.591 255.864C783.591 248.197 784.864 241.727 787.409 236.455C789.985 231.152 793.455 227.136 797.818 224.409C802.182 221.652 807.045 220.273 812.409 220.273C816.5 220.273 819.864 220.97 822.5 222.364C825.167 223.727 827.288 225.379 828.864 227.318C830.439 229.227 831.636 231.03 832.455 232.727H833.364V221.182H849.591V292.136C849.591 298.106 848.167 303.045 845.318 306.955C842.47 310.864 838.576 313.788 833.636 315.727C828.697 317.667 823.091 318.636 816.818 318.636ZM816.955 277.091C820.439 277.091 823.409 276.242 825.864 274.545C828.318 272.848 830.182 270.409 831.455 267.227C832.727 264.045 833.364 260.227 833.364 255.773C833.364 251.379 832.727 247.53 831.455 244.227C830.212 240.924 828.364 238.364 825.909 236.545C823.485 234.697 820.5 233.773 816.955 233.773C813.288 233.773 810.227 234.727 807.773 236.636C805.318 238.545 803.47 241.167 802.227 244.5C800.985 247.803 800.364 251.561 800.364 255.773C800.364 260.045 800.985 263.788 802.227 267C803.5 270.182 805.364 272.667 807.818 274.455C810.303 276.212 813.348 277.091 816.955 277.091ZM898.932 291V197.909H915.795V240.682H916.932L953.25 197.909H973.841L937.841 239.682L974.159 291H953.886L926.114 251.091L915.795 263.273V291H898.932ZM1001.28 250.091V291H984.83V197.909H1000.92V233.045H1001.74C1003.38 229.106 1005.91 226 1009.33 223.727C1012.78 221.424 1017.18 220.273 1022.51 220.273C1027.36 220.273 1031.59 221.288 1035.19 223.318C1038.8 225.348 1041.59 228.318 1043.56 232.227C1045.56 236.136 1046.56 240.909 1046.56 246.545V291H1030.1V249.091C1030.1 244.394 1028.89 240.742 1026.47 238.136C1024.07 235.5 1020.71 234.182 1016.38 234.182C1013.47 234.182 1010.86 234.818 1008.56 236.091C1006.28 237.333 1004.5 239.136 1003.19 241.5C1001.92 243.864 1001.28 246.727 1001.28 250.091ZM1093.78 292.364C1086.97 292.364 1081.06 290.864 1076.06 287.864C1071.06 284.864 1067.18 280.667 1064.42 275.273C1061.69 269.879 1060.33 263.576 1060.33 256.364C1060.33 249.152 1061.69 242.833 1064.42 237.409C1067.18 231.985 1071.06 227.773 1076.06 224.773C1081.06 221.773 1086.97 220.273 1093.78 220.273C1100.6 220.273 1106.51 221.773 1111.51 224.773C1116.51 227.773 1120.38 231.985 1123.1 237.409C1125.86 242.833 1127.24 249.152 1127.24 256.364C1127.24 263.576 1125.86 269.879 1123.1 275.273C1120.38 280.667 1116.51 284.864 1111.51 287.864C1106.51 290.864 1100.6 292.364 1093.78 292.364ZM1093.88 279.182C1097.57 279.182 1100.66 278.167 1103.15 276.136C1105.63 274.076 1107.48 271.318 1108.69 267.864C1109.94 264.409 1110.56 260.561 1110.56 256.318C1110.56 252.045 1109.94 248.182 1108.69 244.727C1107.48 241.242 1105.63 238.47 1103.15 236.409C1100.66 234.348 1097.57 233.318 1093.88 233.318C1090.09 233.318 1086.94 234.348 1084.42 236.409C1081.94 238.47 1080.07 241.242 1078.83 244.727C1077.62 248.182 1077.01 252.045 1077.01 256.318C1077.01 260.561 1077.62 264.409 1078.83 267.864C1080.07 271.318 1081.94 274.076 1084.42 276.136C1086.94 278.167 1090.09 279.182 1093.88 279.182ZM1161.3 292.409C1156.87 292.409 1152.89 291.621 1149.34 290.045C1145.83 288.439 1143.04 286.076 1140.98 282.955C1138.95 279.833 1137.93 275.985 1137.93 271.409C1137.93 267.47 1138.66 264.212 1140.11 261.636C1141.57 259.061 1143.55 257 1146.07 255.455C1148.58 253.909 1151.42 252.742 1154.57 251.955C1157.75 251.136 1161.04 250.545 1164.43 250.182C1168.52 249.758 1171.84 249.379 1174.39 249.045C1176.93 248.682 1178.78 248.136 1179.93 247.409C1181.11 246.652 1181.7 245.485 1181.7 243.909V243.636C1181.7 240.212 1180.69 237.561 1178.66 235.682C1176.63 233.803 1173.7 232.864 1169.89 232.864C1165.86 232.864 1162.66 233.742 1160.3 235.5C1157.96 237.258 1156.39 239.333 1155.57 241.727L1140.2 239.545C1141.42 235.303 1143.42 231.758 1146.2 228.909C1148.99 226.03 1152.4 223.879 1156.43 222.455C1160.46 221 1164.92 220.273 1169.8 220.273C1173.16 220.273 1176.51 220.667 1179.84 221.455C1183.17 222.242 1186.22 223.545 1188.98 225.364C1191.73 227.152 1193.95 229.591 1195.61 232.682C1197.31 235.773 1198.16 239.636 1198.16 244.273V291H1182.34V281.409H1181.8C1180.8 283.348 1179.39 285.167 1177.57 286.864C1175.78 288.53 1173.52 289.879 1170.8 290.909C1168.1 291.909 1164.93 292.409 1161.3 292.409ZM1165.57 280.318C1168.87 280.318 1171.73 279.667 1174.16 278.364C1176.58 277.03 1178.45 275.273 1179.75 273.091C1181.08 270.909 1181.75 268.53 1181.75 265.955V257.727C1181.23 258.152 1180.36 258.545 1179.11 258.909C1177.9 259.273 1176.54 259.591 1175.02 259.864C1173.51 260.136 1172.01 260.379 1170.52 260.591C1169.04 260.803 1167.75 260.985 1166.66 261.136C1164.2 261.47 1162.01 262.015 1160.07 262.773C1158.13 263.53 1156.6 264.591 1155.48 265.955C1154.36 267.288 1153.8 269.015 1153.8 271.136C1153.8 274.167 1154.9 276.455 1157.11 278C1159.33 279.545 1162.14 280.318 1165.57 280.318Z" fill="#262422"/>
<path d="M46.6136 347.909H50.1364V367.17C50.1364 369.159 49.6676 370.935 48.7301 372.497C47.8021 374.05 46.4905 375.277 44.7955 376.176C43.1004 377.066 41.1117 377.511 38.8295 377.511C36.5473 377.511 34.5587 377.066 32.8636 376.176C31.1686 375.277 29.8523 374.05 28.9148 372.497C27.9867 370.935 27.5227 369.159 27.5227 367.17V347.909H31.0455V366.886C31.0455 368.307 31.358 369.571 31.983 370.679C32.608 371.777 33.4981 372.644 34.6534 373.278C35.8182 373.903 37.2102 374.216 38.8295 374.216C40.4489 374.216 41.8409 373.903 43.0057 373.278C44.1705 372.644 45.0606 371.777 45.6761 370.679C46.3011 369.571 46.6136 368.307 46.6136 366.886V347.909ZM60.6939 347.909V377H57.1712V347.909H60.6939ZM77.5866 346.545L68.2116 381.375H65.1435L74.5185 346.545H77.5866ZM101.106 347.909H104.629V367.17C104.629 369.159 104.16 370.935 103.222 372.497C102.294 374.05 100.983 375.277 99.2876 376.176C97.5926 377.066 95.6039 377.511 93.3217 377.511C91.0395 377.511 89.0509 377.066 87.3558 376.176C85.6607 375.277 84.3445 374.05 83.407 372.497C82.4789 370.935 82.0149 369.159 82.0149 367.17V347.909H85.5376V366.886C85.5376 368.307 85.8501 369.571 86.4751 370.679C87.1001 371.777 87.9903 372.644 89.1456 373.278C90.3104 373.903 91.7024 374.216 93.3217 374.216C94.9411 374.216 96.3331 373.903 97.4979 373.278C98.6626 372.644 99.5528 371.777 100.168 370.679C100.793 369.571 101.106 368.307 101.106 366.886V347.909ZM113.368 347.909L120.868 360.011H121.095L128.595 347.909H132.743L123.595 362.455L132.743 377H128.595L121.095 365.125H120.868L113.368 377H109.22L118.595 362.455L109.22 347.909H113.368ZM157.555 377H148.577V347.909H157.952C160.774 347.909 163.189 348.491 165.197 349.656C167.204 350.812 168.743 352.473 169.813 354.642C170.883 356.801 171.418 359.386 171.418 362.398C171.418 365.428 170.879 368.037 169.799 370.224C168.719 372.402 167.147 374.079 165.083 375.253C163.019 376.418 160.509 377 157.555 377ZM152.1 373.875H157.327C159.733 373.875 161.726 373.411 163.308 372.483C164.889 371.555 166.068 370.234 166.844 368.52C167.621 366.806 168.009 364.765 168.009 362.398C168.009 360.049 167.626 358.027 166.859 356.332C166.092 354.628 164.946 353.321 163.421 352.412C161.897 351.493 159.998 351.034 157.725 351.034H152.1V373.875ZM186.021 377.455C183.918 377.455 182.105 376.991 180.58 376.062C179.065 375.125 177.896 373.818 177.072 372.142C176.257 370.456 175.85 368.496 175.85 366.261C175.85 364.027 176.257 362.057 177.072 360.352C177.896 358.638 179.041 357.303 180.509 356.347C181.987 355.381 183.71 354.898 185.68 354.898C186.816 354.898 187.938 355.087 189.046 355.466C190.154 355.845 191.163 356.46 192.072 357.312C192.981 358.155 193.705 359.273 194.245 360.665C194.785 362.057 195.055 363.771 195.055 365.807V367.227H178.237V364.33H191.646C191.646 363.098 191.399 362 190.907 361.034C190.424 360.068 189.733 359.306 188.833 358.747C187.943 358.188 186.892 357.909 185.68 357.909C184.344 357.909 183.189 358.241 182.214 358.903C181.248 359.557 180.504 360.409 179.984 361.46C179.463 362.511 179.202 363.638 179.202 364.841V366.773C179.202 368.42 179.487 369.817 180.055 370.963C180.632 372.099 181.433 372.966 182.455 373.562C183.478 374.15 184.666 374.443 186.021 374.443C186.901 374.443 187.697 374.32 188.407 374.074C189.127 373.818 189.747 373.439 190.268 372.938C190.789 372.426 191.191 371.792 191.475 371.034L194.714 371.943C194.373 373.042 193.8 374.008 192.995 374.841C192.19 375.665 191.196 376.309 190.012 376.773C188.828 377.227 187.498 377.455 186.021 377.455ZM215.609 360.068L212.597 360.92C212.408 360.419 212.129 359.931 211.759 359.457C211.399 358.974 210.907 358.577 210.282 358.264C209.657 357.952 208.857 357.795 207.881 357.795C206.546 357.795 205.433 358.103 204.543 358.719C203.663 359.325 203.222 360.097 203.222 361.034C203.222 361.867 203.525 362.526 204.131 363.009C204.737 363.491 205.684 363.894 206.972 364.216L210.211 365.011C212.162 365.485 213.615 366.209 214.572 367.185C215.528 368.151 216.006 369.396 216.006 370.92C216.006 372.17 215.647 373.288 214.927 374.273C214.217 375.258 213.222 376.034 211.944 376.602C210.665 377.17 209.179 377.455 207.484 377.455C205.258 377.455 203.416 376.972 201.958 376.006C200.5 375.04 199.576 373.629 199.188 371.773L202.37 370.977C202.673 372.152 203.246 373.032 204.089 373.619C204.941 374.206 206.054 374.5 207.427 374.5C208.989 374.5 210.23 374.169 211.148 373.506C212.076 372.833 212.54 372.028 212.54 371.091C212.54 370.333 212.275 369.699 211.745 369.188C211.215 368.667 210.4 368.278 209.302 368.023L205.665 367.17C203.667 366.697 202.2 365.963 201.262 364.969C200.334 363.965 199.87 362.71 199.87 361.205C199.87 359.973 200.216 358.884 200.907 357.938C201.608 356.991 202.559 356.247 203.762 355.707C204.974 355.168 206.347 354.898 207.881 354.898C210.04 354.898 211.736 355.371 212.967 356.318C214.207 357.265 215.088 358.515 215.609 360.068ZM221.053 377V355.182H224.405V377H221.053ZM222.757 351.545C222.104 351.545 221.54 351.323 221.067 350.878C220.603 350.433 220.371 349.898 220.371 349.273C220.371 348.648 220.603 348.113 221.067 347.668C221.54 347.223 222.104 347 222.757 347C223.411 347 223.969 347.223 224.433 347.668C224.907 348.113 225.143 348.648 225.143 349.273C225.143 349.898 224.907 350.433 224.433 350.878C223.969 351.323 223.411 351.545 222.757 351.545ZM239.352 385.636C237.732 385.636 236.34 385.428 235.175 385.011C234.011 384.604 233.04 384.064 232.263 383.392C231.496 382.729 230.886 382.019 230.431 381.261L233.102 379.386C233.405 379.784 233.788 380.239 234.252 380.75C234.716 381.271 235.351 381.721 236.156 382.099C236.97 382.488 238.035 382.682 239.352 382.682C241.113 382.682 242.567 382.256 243.712 381.403C244.858 380.551 245.431 379.216 245.431 377.398V372.966H245.147C244.901 373.364 244.55 373.856 244.096 374.443C243.651 375.021 243.007 375.537 242.164 375.991C241.331 376.437 240.204 376.659 238.783 376.659C237.022 376.659 235.441 376.242 234.039 375.409C232.647 374.576 231.544 373.364 230.729 371.773C229.924 370.182 229.522 368.25 229.522 365.977C229.522 363.742 229.915 361.796 230.701 360.139C231.487 358.473 232.581 357.185 233.982 356.276C235.384 355.357 237.003 354.898 238.84 354.898C240.261 354.898 241.388 355.134 242.221 355.608C243.064 356.072 243.708 356.602 244.153 357.199C244.607 357.786 244.958 358.269 245.204 358.648H245.545V355.182H248.783V377.625C248.783 379.5 248.357 381.025 247.505 382.199C246.662 383.383 245.526 384.249 244.096 384.798C242.675 385.357 241.094 385.636 239.352 385.636ZM239.238 373.648C240.583 373.648 241.719 373.34 242.647 372.724C243.575 372.109 244.281 371.223 244.763 370.068C245.246 368.913 245.488 367.53 245.488 365.92C245.488 364.348 245.251 362.961 244.778 361.759C244.304 360.556 243.603 359.614 242.675 358.932C241.747 358.25 240.602 357.909 239.238 357.909C237.817 357.909 236.634 358.269 235.687 358.989C234.749 359.708 234.044 360.674 233.57 361.886C233.106 363.098 232.874 364.443 232.874 365.92C232.874 367.436 233.111 368.776 233.585 369.94C234.067 371.096 234.778 372.005 235.715 372.668C236.662 373.321 237.836 373.648 239.238 373.648ZM258.272 363.875V377H254.92V355.182H258.158V358.591H258.442C258.954 357.483 259.73 356.593 260.772 355.92C261.814 355.239 263.158 354.898 264.806 354.898C266.283 354.898 267.576 355.201 268.684 355.807C269.792 356.403 270.654 357.312 271.269 358.534C271.885 359.746 272.192 361.28 272.192 363.136V377H268.84V363.364C268.84 361.65 268.395 360.314 267.505 359.358C266.615 358.392 265.393 357.909 263.84 357.909C262.77 357.909 261.814 358.141 260.971 358.605C260.138 359.069 259.479 359.746 258.996 360.636C258.513 361.527 258.272 362.606 258.272 363.875ZM287.466 377.455C285.364 377.455 283.55 376.991 282.026 376.062C280.51 375.125 279.341 373.818 278.517 372.142C277.703 370.456 277.295 368.496 277.295 366.261C277.295 364.027 277.703 362.057 278.517 360.352C279.341 358.638 280.487 357.303 281.955 356.347C283.432 355.381 285.155 354.898 287.125 354.898C288.261 354.898 289.384 355.087 290.491 355.466C291.599 355.845 292.608 356.46 293.517 357.312C294.426 358.155 295.151 359.273 295.69 360.665C296.23 362.057 296.5 363.771 296.5 365.807V367.227H279.682V364.33H293.091C293.091 363.098 292.845 362 292.352 361.034C291.869 360.068 291.178 359.306 290.278 358.747C289.388 358.188 288.337 357.909 287.125 357.909C285.79 357.909 284.634 358.241 283.659 358.903C282.693 359.557 281.95 360.409 281.429 361.46C280.908 362.511 280.648 363.638 280.648 364.841V366.773C280.648 368.42 280.932 369.817 281.5 370.963C282.078 372.099 282.878 372.966 283.901 373.562C284.923 374.15 286.112 374.443 287.466 374.443C288.347 374.443 289.142 374.32 289.852 374.074C290.572 373.818 291.192 373.439 291.713 372.938C292.234 372.426 292.636 371.792 292.92 371.034L296.159 371.943C295.818 373.042 295.245 374.008 294.44 374.841C293.635 375.665 292.641 376.309 291.457 376.773C290.274 377.227 288.943 377.455 287.466 377.455ZM301.599 377V355.182H304.838V358.477H305.065C305.463 357.398 306.183 356.522 307.224 355.849C308.266 355.177 309.44 354.841 310.747 354.841C310.993 354.841 311.301 354.846 311.67 354.855C312.04 354.865 312.319 354.879 312.509 354.898V358.307C312.395 358.278 312.134 358.236 311.727 358.179C311.33 358.113 310.908 358.08 310.463 358.08C309.402 358.08 308.455 358.302 307.622 358.747C306.798 359.183 306.145 359.789 305.662 360.565C305.188 361.332 304.952 362.208 304.952 363.193V377H301.599ZM336.255 371.886V353.136H339.437V371.886H336.255ZM328.471 364.102V360.92H347.221V364.102H328.471ZM381.713 355.182C381.543 353.742 380.851 352.625 379.639 351.83C378.427 351.034 376.94 350.636 375.179 350.636C373.891 350.636 372.764 350.845 371.798 351.261C370.842 351.678 370.094 352.251 369.554 352.98C369.024 353.709 368.759 354.538 368.759 355.466C368.759 356.242 368.943 356.91 369.312 357.469C369.691 358.018 370.174 358.477 370.761 358.847C371.348 359.206 371.964 359.505 372.608 359.741C373.252 359.969 373.844 360.153 374.384 360.295L377.338 361.091C378.096 361.29 378.938 361.564 379.866 361.915C380.804 362.265 381.699 362.743 382.551 363.349C383.413 363.946 384.123 364.713 384.682 365.651C385.241 366.588 385.52 367.739 385.52 369.102C385.52 370.674 385.108 372.095 384.284 373.364C383.47 374.633 382.277 375.641 380.705 376.389C379.142 377.137 377.243 377.511 375.009 377.511C372.925 377.511 371.121 377.175 369.597 376.503C368.081 375.83 366.888 374.893 366.017 373.69C365.155 372.488 364.668 371.091 364.554 369.5H368.19C368.285 370.598 368.654 371.508 369.298 372.227C369.952 372.937 370.776 373.468 371.77 373.818C372.774 374.159 373.853 374.33 375.009 374.33C376.353 374.33 377.561 374.112 378.631 373.676C379.701 373.231 380.548 372.616 381.173 371.83C381.798 371.034 382.111 370.106 382.111 369.045C382.111 368.08 381.841 367.294 381.301 366.688C380.761 366.081 380.051 365.589 379.17 365.21C378.29 364.831 377.338 364.5 376.315 364.216L372.736 363.193C370.463 362.54 368.664 361.607 367.338 360.395C366.012 359.183 365.349 357.597 365.349 355.636C365.349 354.008 365.79 352.587 366.67 351.375C367.561 350.153 368.754 349.206 370.25 348.534C371.756 347.852 373.437 347.511 375.293 347.511C377.168 347.511 378.834 347.848 380.293 348.52C381.751 349.183 382.906 350.092 383.759 351.247C384.62 352.402 385.075 353.714 385.122 355.182H381.713ZM408.698 355.182L400.63 377H397.221L389.153 355.182H392.789L398.812 372.568H399.039L405.062 355.182H408.698ZM421.489 377.455C419.387 377.455 417.574 376.991 416.049 376.062C414.534 375.125 413.364 373.818 412.54 372.142C411.726 370.456 411.319 368.496 411.319 366.261C411.319 364.027 411.726 362.057 412.54 360.352C413.364 358.638 414.51 357.303 415.978 356.347C417.455 355.381 419.179 354.898 421.148 354.898C422.285 354.898 423.407 355.087 424.515 355.466C425.623 355.845 426.631 356.46 427.54 357.312C428.45 358.155 429.174 359.273 429.714 360.665C430.254 362.057 430.523 363.771 430.523 365.807V367.227H413.705V364.33H427.114C427.114 363.098 426.868 362 426.376 361.034C425.893 360.068 425.201 359.306 424.302 358.747C423.412 358.188 422.361 357.909 421.148 357.909C419.813 357.909 418.658 358.241 417.683 358.903C416.717 359.557 415.973 360.409 415.452 361.46C414.932 362.511 414.671 363.638 414.671 364.841V366.773C414.671 368.42 414.955 369.817 415.523 370.963C416.101 372.099 416.901 372.966 417.924 373.562C418.947 374.15 420.135 374.443 421.489 374.443C422.37 374.443 423.165 374.32 423.876 374.074C424.595 373.818 425.216 373.439 425.737 372.938C426.257 372.426 426.66 371.792 426.944 371.034L430.183 371.943C429.842 373.042 429.269 374.008 428.464 374.841C427.659 375.665 426.665 376.309 425.481 376.773C424.297 377.227 422.967 377.455 421.489 377.455ZM438.975 347.909V377H435.623V347.909H438.975ZM454.604 355.182V358.023H443.297V355.182H454.604ZM446.592 349.955H449.945V370.75C449.945 371.697 450.082 372.407 450.357 372.881C450.641 373.345 451 373.657 451.436 373.818C451.881 373.97 452.35 374.045 452.842 374.045C453.212 374.045 453.515 374.027 453.751 373.989C453.988 373.941 454.178 373.903 454.32 373.875L455.001 376.886C454.774 376.972 454.457 377.057 454.05 377.142C453.643 377.237 453.126 377.284 452.501 377.284C451.554 377.284 450.626 377.08 449.717 376.673C448.818 376.266 448.07 375.646 447.473 374.812C446.886 373.979 446.592 372.928 446.592 371.659V349.955ZM468.56 377.455C466.457 377.455 464.644 376.991 463.119 376.062C461.604 375.125 460.435 373.818 459.611 372.142C458.796 370.456 458.389 368.496 458.389 366.261C458.389 364.027 458.796 362.057 459.611 360.352C460.435 358.638 461.58 357.303 463.048 356.347C464.526 355.381 466.249 354.898 468.219 354.898C469.355 354.898 470.477 355.087 471.585 355.466C472.693 355.845 473.702 356.46 474.611 357.312C475.52 358.155 476.244 359.273 476.784 360.665C477.324 362.057 477.594 363.771 477.594 365.807V367.227H460.776V364.33H474.185C474.185 363.098 473.938 362 473.446 361.034C472.963 360.068 472.272 359.306 471.372 358.747C470.482 358.188 469.431 357.909 468.219 357.909C466.884 357.909 465.728 358.241 464.753 358.903C463.787 359.557 463.044 360.409 462.523 361.46C462.002 362.511 461.741 363.638 461.741 364.841V366.773C461.741 368.42 462.026 369.817 462.594 370.963C463.171 372.099 463.972 372.966 464.994 373.562C466.017 374.15 467.205 374.443 468.56 374.443C469.44 374.443 470.236 374.32 470.946 374.074C471.666 373.818 472.286 373.439 472.807 372.938C473.328 372.426 473.73 371.792 474.014 371.034L477.253 371.943C476.912 373.042 476.339 374.008 475.534 374.841C474.729 375.665 473.735 376.309 472.551 376.773C471.367 377.227 470.037 377.455 468.56 377.455ZM483.148 377V347.909H486.67V362.341H487.011L500.08 347.909H504.682L492.466 361.034L504.682 377H500.42L490.307 363.477L486.67 367.568V377H483.148ZM510.154 377V355.182H513.506V377H510.154ZM511.859 351.545C511.205 351.545 510.642 351.323 510.168 350.878C509.704 350.433 509.472 349.898 509.472 349.273C509.472 348.648 509.704 348.113 510.168 347.668C510.642 347.223 511.205 347 511.859 347C512.512 347 513.071 347.223 513.535 347.668C514.008 348.113 514.245 348.648 514.245 349.273C514.245 349.898 514.008 350.433 513.535 350.878C513.071 351.323 512.512 351.545 511.859 351.545ZM529.135 355.182V358.023H517.828V355.182H529.135ZM521.124 349.955H524.476V370.75C524.476 371.697 524.613 372.407 524.888 372.881C525.172 373.345 525.532 373.657 525.967 373.818C526.412 373.97 526.881 374.045 527.374 374.045C527.743 374.045 528.046 374.027 528.283 373.989C528.519 373.941 528.709 373.903 528.851 373.875L529.533 376.886C529.305 376.972 528.988 377.057 528.581 377.142C528.174 377.237 527.658 377.284 527.033 377.284C526.086 377.284 525.158 377.08 524.249 376.673C523.349 376.266 522.601 375.646 522.004 374.812C521.417 373.979 521.124 372.928 521.124 371.659V349.955ZM554.859 377H545.882V347.909H555.257C558.079 347.909 560.494 348.491 562.501 349.656C564.509 350.812 566.048 352.473 567.118 354.642C568.188 356.801 568.723 359.386 568.723 362.398C568.723 365.428 568.183 368.037 567.104 370.224C566.024 372.402 564.452 374.079 562.388 375.253C560.323 376.418 557.814 377 554.859 377ZM549.405 373.875H554.632C557.037 373.875 559.031 373.411 560.612 372.483C562.194 371.555 563.373 370.234 564.149 368.52C564.926 366.806 565.314 364.765 565.314 362.398C565.314 360.049 564.93 358.027 564.163 356.332C563.396 354.628 562.25 353.321 560.726 352.412C559.201 351.493 557.303 351.034 555.03 351.034H549.405V373.875ZM583.325 377.455C581.223 377.455 579.41 376.991 577.885 376.062C576.37 375.125 575.2 373.818 574.376 372.142C573.562 370.456 573.155 368.496 573.155 366.261C573.155 364.027 573.562 362.057 574.376 360.352C575.2 358.638 576.346 357.303 577.814 356.347C579.291 355.381 581.015 354.898 582.984 354.898C584.121 354.898 585.243 355.087 586.351 355.466C587.459 355.845 588.467 356.46 589.376 357.312C590.286 358.155 591.01 359.273 591.55 360.665C592.089 362.057 592.359 363.771 592.359 365.807V367.227H575.541V364.33H588.95C588.95 363.098 588.704 362 588.212 361.034C587.729 360.068 587.037 359.306 586.138 358.747C585.248 358.188 584.196 357.909 582.984 357.909C581.649 357.909 580.494 358.241 579.518 358.903C578.553 359.557 577.809 360.409 577.288 361.46C576.768 362.511 576.507 363.638 576.507 364.841V366.773C576.507 368.42 576.791 369.817 577.359 370.963C577.937 372.099 578.737 372.966 579.76 373.562C580.783 374.15 581.971 374.443 583.325 374.443C584.206 374.443 585.001 374.32 585.712 374.074C586.431 373.818 587.052 373.439 587.572 372.938C588.093 372.426 588.496 371.792 588.78 371.034L592.018 371.943C591.678 373.042 591.105 374.008 590.3 374.841C589.495 375.665 588.5 376.309 587.317 376.773C586.133 377.227 584.803 377.455 583.325 377.455ZM614.636 355.182L606.567 377H603.158L595.09 355.182H598.727L604.749 372.568H604.977L610.999 355.182H614.636ZM627.427 377.455C625.325 377.455 623.511 376.991 621.987 376.062C620.471 375.125 619.302 373.818 618.478 372.142C617.664 370.456 617.256 368.496 617.256 366.261C617.256 364.027 617.664 362.057 618.478 360.352C619.302 358.638 620.448 357.303 621.915 356.347C623.393 355.381 625.116 354.898 627.086 354.898C628.222 354.898 629.344 355.087 630.452 355.466C631.56 355.845 632.569 356.46 633.478 357.312C634.387 358.155 635.112 359.273 635.651 360.665C636.191 362.057 636.461 363.771 636.461 365.807V367.227H619.643V364.33H633.052C633.052 363.098 632.806 362 632.313 361.034C631.83 360.068 631.139 359.306 630.239 358.747C629.349 358.188 628.298 357.909 627.086 357.909C625.751 357.909 624.595 358.241 623.62 358.903C622.654 359.557 621.911 360.409 621.39 361.46C620.869 362.511 620.609 363.638 620.609 364.841V366.773C620.609 368.42 620.893 369.817 621.461 370.963C622.039 372.099 622.839 372.966 623.862 373.562C624.884 374.15 626.073 374.443 627.427 374.443C628.308 374.443 629.103 374.32 629.813 374.074C630.533 373.818 631.153 373.439 631.674 372.938C632.195 372.426 632.597 371.792 632.881 371.034L636.12 371.943C635.779 373.042 635.206 374.008 634.401 374.841C633.596 375.665 632.602 376.309 631.418 376.773C630.235 377.227 628.904 377.455 627.427 377.455ZM644.913 347.909V377H641.56V347.909H644.913ZM659.916 377.455C657.946 377.455 656.218 376.986 654.732 376.048C653.254 375.111 652.099 373.799 651.266 372.114C650.442 370.428 650.03 368.458 650.03 366.205C650.03 363.932 650.442 361.948 651.266 360.253C652.099 358.558 653.254 357.241 654.732 356.304C656.218 355.366 657.946 354.898 659.916 354.898C661.886 354.898 663.609 355.366 665.087 356.304C666.573 357.241 667.729 358.558 668.553 360.253C669.386 361.948 669.803 363.932 669.803 366.205C669.803 368.458 669.386 370.428 668.553 372.114C667.729 373.799 666.573 375.111 665.087 376.048C663.609 376.986 661.886 377.455 659.916 377.455ZM659.916 374.443C661.412 374.443 662.643 374.06 663.609 373.293C664.575 372.526 665.29 371.517 665.754 370.267C666.218 369.017 666.45 367.663 666.45 366.205C666.45 364.746 666.218 363.387 665.754 362.128C665.29 360.868 664.575 359.85 663.609 359.074C662.643 358.297 661.412 357.909 659.916 357.909C658.42 357.909 657.189 358.297 656.223 359.074C655.257 359.85 654.542 360.868 654.078 362.128C653.614 363.387 653.382 364.746 653.382 366.205C653.382 367.663 653.614 369.017 654.078 370.267C654.542 371.517 655.257 372.526 656.223 373.293C657.189 374.06 658.42 374.443 659.916 374.443ZM674.92 385.182V355.182H678.158V358.648H678.556C678.802 358.269 679.143 357.786 679.579 357.199C680.024 356.602 680.658 356.072 681.482 355.608C682.316 355.134 683.442 354.898 684.863 354.898C686.7 354.898 688.319 355.357 689.721 356.276C691.122 357.194 692.216 358.496 693.002 360.182C693.788 361.867 694.181 363.856 694.181 366.148C694.181 368.458 693.788 370.461 693.002 372.156C692.216 373.842 691.127 375.149 689.735 376.077C688.343 376.995 686.738 377.455 684.92 377.455C683.518 377.455 682.396 377.223 681.553 376.759C680.71 376.285 680.062 375.75 679.607 375.153C679.153 374.547 678.802 374.045 678.556 373.648H678.272V385.182H674.92ZM678.215 366.091C678.215 367.739 678.457 369.192 678.94 370.452C679.423 371.702 680.128 372.682 681.056 373.392C681.984 374.093 683.121 374.443 684.465 374.443C685.867 374.443 687.036 374.074 687.974 373.335C688.921 372.587 689.631 371.583 690.104 370.324C690.587 369.055 690.829 367.644 690.829 366.091C690.829 364.557 690.592 363.174 690.119 361.943C689.655 360.703 688.949 359.723 688.002 359.003C687.065 358.274 685.886 357.909 684.465 357.909C683.102 357.909 681.956 358.255 681.028 358.946C680.1 359.628 679.399 360.584 678.925 361.815C678.452 363.037 678.215 364.462 678.215 366.091ZM708.442 377.455C706.34 377.455 704.527 376.991 703.002 376.062C701.487 375.125 700.317 373.818 699.494 372.142C698.679 370.456 698.272 368.496 698.272 366.261C698.272 364.027 698.679 362.057 699.494 360.352C700.317 358.638 701.463 357.303 702.931 356.347C704.408 355.381 706.132 354.898 708.102 354.898C709.238 354.898 710.36 355.087 711.468 355.466C712.576 355.845 713.585 356.46 714.494 357.312C715.403 358.155 716.127 359.273 716.667 360.665C717.207 362.057 717.477 363.771 717.477 365.807V367.227H700.658V364.33H714.067C714.067 363.098 713.821 362 713.329 361.034C712.846 360.068 712.155 359.306 711.255 358.747C710.365 358.188 709.314 357.909 708.102 357.909C706.766 357.909 705.611 358.241 704.636 358.903C703.67 359.557 702.926 360.409 702.406 361.46C701.885 362.511 701.624 363.638 701.624 364.841V366.773C701.624 368.42 701.908 369.817 702.477 370.963C703.054 372.099 703.854 372.966 704.877 373.562C705.9 374.15 707.088 374.443 708.442 374.443C709.323 374.443 710.119 374.32 710.829 374.074C711.549 373.818 712.169 373.439 712.69 372.938C713.21 372.426 713.613 371.792 713.897 371.034L717.136 371.943C716.795 373.042 716.222 374.008 715.417 374.841C714.612 375.665 713.618 376.309 712.434 376.773C711.25 377.227 709.92 377.455 708.442 377.455ZM722.576 377V355.182H725.815V358.477H726.042C726.44 357.398 727.159 356.522 728.201 355.849C729.243 355.177 730.417 354.841 731.724 354.841C731.97 354.841 732.278 354.846 732.647 354.855C733.016 354.865 733.296 354.879 733.485 354.898V358.307C733.371 358.278 733.111 358.236 732.704 358.179C732.306 358.113 731.885 358.08 731.44 358.08C730.379 358.08 729.432 358.302 728.599 358.747C727.775 359.183 727.121 359.789 726.638 360.565C726.165 361.332 725.928 362.208 725.928 363.193V377H722.576Z" fill="#262422"/>
<path d="M26.8182 59.5V36.2273H34.9545C36.5758 36.2273 37.9129 36.5076 38.9659 37.0682C40.0189 37.6212 40.803 38.3674 41.3182 39.3068C41.8333 40.2386 42.0909 41.2727 42.0909 42.4091C42.0909 43.4091 41.9129 44.2348 41.5568 44.8864C41.2083 45.5379 40.7462 46.053 40.1705 46.4318C39.6023 46.8106 38.9848 47.0909 38.3182 47.2727V47.5C39.0303 47.5455 39.7462 47.7955 40.4659 48.25C41.1856 48.7045 41.7879 49.3561 42.2727 50.2045C42.7576 51.053 43 52.0909 43 53.3182C43 54.4848 42.7348 55.5341 42.2045 56.4659C41.6742 57.3977 40.8371 58.1364 39.6932 58.6818C38.5492 59.2273 37.0606 59.5 35.2273 59.5H26.8182ZM29.6364 57H35.2273C37.0682 57 38.375 56.6439 39.1477 55.9318C39.928 55.2121 40.3182 54.3409 40.3182 53.3182C40.3182 52.5303 40.1174 51.803 39.7159 51.1364C39.3144 50.4621 38.7424 49.9242 38 49.5227C37.2576 49.1136 36.3788 48.9091 35.3636 48.9091H29.6364V57ZM29.6364 46.4545H34.8636C35.7121 46.4545 36.4773 46.2879 37.1591 45.9545C37.8485 45.6212 38.3939 45.1515 38.7955 44.5455C39.2045 43.9394 39.4091 43.2273 39.4091 42.4091C39.4091 41.3864 39.053 40.5189 38.3409 39.8068C37.6288 39.0871 36.5 38.7273 34.9545 38.7273H29.6364V46.4545ZM58.267 52.3636V42.0455H60.9489V59.5H58.267V56.5455H58.0852C57.6761 57.4318 57.0398 58.1856 56.1761 58.8068C55.3125 59.4205 54.2216 59.7273 52.9034 59.7273C51.8125 59.7273 50.8428 59.4886 49.9943 59.0114C49.1458 58.5265 48.4792 57.7992 47.9943 56.8295C47.5095 55.8523 47.267 54.6212 47.267 53.1364V42.0455H49.9489V52.9545C49.9489 54.2273 50.3049 55.2424 51.017 56C51.7367 56.7576 52.6534 57.1364 53.767 57.1364C54.4337 57.1364 55.1117 56.9659 55.8011 56.625C56.4981 56.2841 57.0814 55.7614 57.5511 55.0568C58.0284 54.3523 58.267 53.4545 58.267 52.3636ZM65.8608 59.5V42.0455H68.5426V59.5H65.8608ZM67.2244 39.1364C66.7017 39.1364 66.2509 38.9583 65.8722 38.6023C65.5009 38.2462 65.3153 37.8182 65.3153 37.3182C65.3153 36.8182 65.5009 36.3902 65.8722 36.0341C66.2509 35.678 66.7017 35.5 67.2244 35.5C67.7472 35.5 68.1941 35.678 68.5653 36.0341C68.9441 36.3902 69.1335 36.8182 69.1335 37.3182C69.1335 37.8182 68.9441 38.2462 68.5653 38.6023C68.1941 38.9583 67.7472 39.1364 67.2244 39.1364ZM76.1364 36.2273V59.5H73.4545V36.2273H76.1364ZM88.6392 42.0455V44.3182H79.5938V42.0455H88.6392ZM82.2301 37.8636H84.9119V54.5C84.9119 55.2576 85.0218 55.8258 85.2415 56.2045C85.4688 56.5758 85.7566 56.8258 86.1051 56.9545C86.4612 57.0758 86.8362 57.1364 87.2301 57.1364C87.5256 57.1364 87.768 57.1212 87.9574 57.0909C88.1468 57.053 88.2983 57.0227 88.4119 57L88.9574 59.4091C88.7756 59.4773 88.5218 59.5455 88.196 59.6136C87.8703 59.6894 87.4574 59.7273 86.9574 59.7273C86.1998 59.7273 85.4574 59.5644 84.7301 59.2386C84.0104 58.9129 83.4119 58.4167 82.9347 57.75C82.465 57.0833 82.2301 56.2424 82.2301 55.2273V37.8636ZM105.628 59.5L100.31 42.0455H103.128L106.901 55.4091H107.082L110.81 42.0455H113.673L117.355 55.3636H117.537L121.31 42.0455H124.128L118.81 59.5H116.173L112.355 46.0909H112.082L108.264 59.5H105.628ZM127.673 59.5V42.0455H130.355V59.5H127.673ZM129.037 39.1364C128.514 39.1364 128.063 38.9583 127.685 38.6023C127.313 38.2462 127.128 37.8182 127.128 37.3182C127.128 36.8182 127.313 36.3902 127.685 36.0341C128.063 35.678 128.514 35.5 129.037 35.5C129.56 35.5 130.007 35.678 130.378 36.0341C130.757 36.3902 130.946 36.8182 130.946 37.3182C130.946 37.8182 130.757 38.2462 130.378 38.6023C130.007 38.9583 129.56 39.1364 129.037 39.1364ZM142.858 42.0455V44.3182H133.812V42.0455H142.858ZM136.449 37.8636H139.131V54.5C139.131 55.2576 139.241 55.8258 139.46 56.2045C139.688 56.5758 139.975 56.8258 140.324 56.9545C140.68 57.0758 141.055 57.1364 141.449 57.1364C141.744 57.1364 141.987 57.1212 142.176 57.0909C142.366 57.053 142.517 57.0227 142.631 57L143.176 59.4091C142.994 59.4773 142.741 59.5455 142.415 59.6136C142.089 59.6894 141.676 59.7273 141.176 59.7273C140.419 59.7273 139.676 59.5644 138.949 59.2386C138.229 58.9129 137.631 58.4167 137.153 57.75C136.684 57.0833 136.449 56.2424 136.449 55.2273V37.8636ZM149.949 49V59.5H147.267V36.2273H149.949V44.7727H150.176C150.585 43.8712 151.199 43.1553 152.017 42.625C152.843 42.0871 153.941 41.8182 155.312 41.8182C156.502 41.8182 157.544 42.0568 158.438 42.5341C159.331 43.0038 160.025 43.7273 160.517 44.7045C161.017 45.6742 161.267 46.9091 161.267 48.4091V59.5H158.585V48.5909C158.585 47.2045 158.225 46.1326 157.506 45.375C156.794 44.6098 155.805 44.2273 154.54 44.2273C153.661 44.2273 152.873 44.4129 152.176 44.7841C151.487 45.1553 150.941 45.697 150.54 46.4091C150.146 47.1212 149.949 47.9848 149.949 49Z" fill="#262422"/>
<g clip-path="url(#clip1_305_584)">
<path d="M403.823 60.6209L396.66 47.3113L392.15 52.7666V60.6214H388.368V35.1652H392.15V47.4929L401.969 35.1652H406.333L399.206 44.111L408.261 60.6209H403.823ZM416.441 60.6209V35.1652H420.223V60.6209H416.441ZM439.933 38.8028V60.6219H436.151V38.8017H428.951V35.1652H447.133V38.8017H439.933V38.8028Z" fill="#262422"/>
<path d="M243.761 61.0576C241.687 61.1097 239.647 60.5329 237.907 59.4031C236.281 58.3311 235.074 56.7324 234.488 54.8755L238.052 53.5664C238.546 54.7063 239.353 55.6828 240.379 56.3828C241.421 57.081 242.652 57.4428 243.906 57.4195C245.112 57.4823 246.302 57.1221 247.271 56.401C247.692 56.0473 248.024 55.6002 248.242 55.0952C248.46 54.5902 248.557 54.0414 248.525 53.4923C248.53 52.9806 248.411 52.4752 248.18 52.019C247.978 51.611 247.714 51.2368 247.397 50.9097C246.997 50.5454 246.544 50.2448 246.052 50.0186C245.446 49.716 244.943 49.4859 244.543 49.3278C243.96 49.103 243.372 48.8908 242.779 48.6913C241.809 48.3522 241.082 48.0856 240.598 47.8915C239.941 47.6121 239.303 47.2902 238.688 46.9278C238.026 46.5766 237.425 46.1222 236.906 45.5817C236.458 45.0546 236.096 44.4593 235.834 43.8183C235.331 42.5961 235.226 41.2468 235.532 39.9613C235.838 38.6757 236.541 37.519 237.541 36.6548C238.995 35.3703 240.971 34.7275 243.468 34.7275C245.553 34.7275 247.268 35.1882 248.614 36.109C249.92 36.9774 250.879 38.2777 251.323 39.7821L247.832 40.9456C247.481 40.1578 246.889 39.5019 246.141 39.073C245.236 38.5709 244.212 38.3256 243.178 38.3635C242.163 38.3053 241.158 38.587 240.322 39.1638C239.981 39.4286 239.708 39.7719 239.528 40.1645C239.348 40.557 239.265 40.9873 239.286 41.4188C239.289 41.7495 239.362 42.0759 239.5 42.3767C239.638 42.6774 239.837 42.9457 240.086 43.164C240.569 43.6397 241.136 44.0218 241.759 44.291C242.341 44.5336 243.227 44.8607 244.414 45.2729C245.14 45.54 245.68 45.7398 246.031 45.8729C246.384 46.0059 246.899 46.2297 247.577 46.5454C248.121 46.786 248.644 47.0715 249.141 47.399C249.586 47.7186 250.011 48.0646 250.414 48.4351C250.852 48.816 251.227 49.2637 251.523 49.7624C251.806 50.2799 252.025 50.8292 252.178 51.3986C252.363 52.0679 252.455 52.7597 252.451 53.4543C252.451 55.8297 251.639 57.6908 250.014 59.0353C248.39 60.3803 246.305 61.0544 243.761 61.0576ZM267.071 60.6214L258.343 35.1652H262.416L268.198 52.9111C268.517 53.8658 268.784 54.8371 268.998 55.8209C269.211 54.8369 269.478 53.8654 269.798 52.9111L275.507 35.1652H279.544L270.852 60.6209L267.071 60.6214ZM287.253 60.6214V35.1652H303.035V38.7287H291.035V45.7111H298.78V49.2746H291.035V57.0574H303.837V60.6219L287.253 60.6214ZM313.471 60.6214V35.1652H317.254V56.9843H329.69V60.6209L313.471 60.6214ZM343.944 38.8023V60.6214H340.162V38.8017H332.962V35.1652H351.145V38.8017H343.945L343.944 38.8023ZM358.961 60.6214V35.1652H374.744V38.7287H362.745V45.7111H370.49V49.2746H362.745V57.0574H375.547V60.6219L358.961 60.6214Z" fill="#262422"/>
<path d="M217.237 30.3245C212.799 23.9723 204.034 22.0883 197.696 26.1271L186.566 33.2212C185.062 34.1671 183.772 35.4165 182.779 36.8893C181.786 38.3621 181.111 40.026 180.797 41.7746C180.266 44.7196 180.732 47.7577 182.122 50.4078C181.169 51.8531 180.52 53.4766 180.213 55.1801C179.895 56.9638 179.938 58.7928 180.337 60.56C180.736 62.3271 181.484 63.9967 182.537 65.4709C186.975 71.8236 195.741 73.7071 202.078 69.6678L213.208 62.5737C214.712 61.6279 216.001 60.3787 216.995 58.9059C217.988 57.4332 218.663 55.7694 218.977 54.0208C219.508 51.0756 219.042 48.0375 217.652 45.3871C218.604 43.9419 219.254 42.3186 219.561 40.6153C219.878 38.8316 219.836 37.0025 219.437 35.2353C219.038 33.4682 218.29 31.7986 217.237 30.3245Z" fill="#FF3E00"/>
<path d="M196.609 66.0689C194.857 66.5243 193.008 66.4312 191.311 65.8022C189.614 65.1731 188.15 64.0384 187.119 62.5513C186.486 61.6649 186.036 60.6609 185.796 59.5984C185.556 58.5358 185.53 57.436 185.721 56.3635C185.785 56.0118 185.874 55.6643 185.987 55.3247L186.196 54.6845L186.767 55.1029C188.083 56.071 189.555 56.8072 191.119 57.2796L191.533 57.4049L191.495 57.8181C191.444 58.4054 191.603 58.9917 191.943 59.473C192.254 59.9212 192.695 60.2633 193.206 60.4529C193.717 60.6425 194.275 60.6705 194.802 60.5332C195.044 60.4691 195.275 60.3685 195.486 60.2348L206.617 53.1386C206.889 52.9671 207.123 52.7407 207.303 52.4739C207.483 52.2071 207.605 51.9058 207.662 51.589C207.719 51.2657 207.711 50.9343 207.639 50.614C207.567 50.2938 207.431 49.9911 207.241 49.7238C206.93 49.2756 206.489 48.9335 205.978 48.7437C205.467 48.5539 204.909 48.5256 204.382 48.6626C204.14 48.7266 203.909 48.8272 203.698 48.961L199.451 51.6689C198.752 52.1129 197.989 52.4476 197.189 52.6612C195.438 53.1165 193.589 53.0234 191.892 52.3943C190.195 51.7653 188.732 50.6307 187.7 49.1436C187.067 48.2573 186.617 47.2534 186.377 46.1908C186.137 45.1282 186.111 44.0284 186.302 42.9558C186.491 41.9043 186.898 40.9039 187.496 40.0185C188.094 39.1332 188.87 38.3823 189.774 37.8141L200.904 30.72C201.603 30.2752 202.366 29.94 203.166 29.7261C204.918 29.2707 206.767 29.3638 208.464 29.9928C210.161 30.6219 211.624 31.7566 212.655 33.2436C213.289 34.13 213.738 35.134 213.978 36.1965C214.219 37.2591 214.244 38.3589 214.054 39.4315C213.988 39.7839 213.899 40.1315 213.786 40.4718L213.576 41.113L213.006 40.6956C211.69 39.7275 210.218 38.9913 208.654 38.5189L208.239 38.3937L208.278 37.9805C208.328 37.3932 208.169 36.8071 207.829 36.3255C207.519 35.8777 207.078 35.536 206.567 35.3464C206.056 35.1568 205.5 35.1285 204.972 35.2654C204.73 35.3294 204.5 35.43 204.289 35.5638L193.158 42.6569C192.886 42.8283 192.652 43.0547 192.472 43.3215C192.292 43.5883 192.17 43.8897 192.113 44.2064C192.056 44.5297 192.063 44.8611 192.135 45.1813C192.208 45.5016 192.343 45.8043 192.533 46.0716C192.844 46.5198 193.285 46.8619 193.796 47.0516C194.307 47.2414 194.865 47.2698 195.393 47.1329C195.634 47.0686 195.865 46.968 196.076 46.8344L200.322 44.1276C201.021 43.6828 201.784 43.3478 202.584 43.1342C204.335 42.679 206.184 42.772 207.88 43.4007C209.577 44.0293 211.04 45.1634 212.071 46.6497C212.705 47.5361 213.155 48.54 213.395 49.6026C213.635 50.6652 213.66 51.765 213.47 52.8375C213.281 53.8892 212.875 54.8899 212.278 55.7757C211.68 56.6615 210.904 57.4129 210 57.9819L198.87 65.0744C198.171 65.5193 197.409 65.8545 196.609 66.0683" fill="white"/>
</g>
<path d="M1919.64 72.9416C1869.15 -0.37089 1770.32 -21.5625 1694.21 24.6114L1565.46 106.463C1548.06 117.364 1533.14 131.806 1521.69 148.848C1510.23 165.891 1502.49 185.153 1498.97 205.383C1492.71 239.376 1498.13 274.485 1514.35 305.01C1503.27 321.661 1495.82 340.46 1492.5 360.18C1488.86 380.744 1489.34 401.827 1493.93 422.202C1498.51 442.577 1507.1 461.836 1519.2 478.86C1569.77 552 1668.34 573.291 1744.61 527.643L1873.46 445.705C1890.8 434.759 1905.65 420.3 1917.06 403.262C1928.46 386.224 1936.17 366.985 1939.68 346.785C1945.86 312.897 1940.41 277.914 1924.22 247.512C1958.45 193.795 1956.65 124.692 1919.64 72.9416ZM1681.36 485.963C1661.13 491.219 1639.78 490.136 1620.2 482.86C1600.61 475.584 1583.73 462.467 1571.84 445.283C1556.92 424.613 1551.45 399.092 1555.76 373.756L1558.28 361.543L1560.61 353.996L1567.53 358.576C1582.71 370.081 1599.7 378.336 1617.85 383.912L1622.52 385.529L1621.99 390.13C1621.54 396.513 1623.42 403.689 1627.11 409.166C1634.66 420.033 1647.78 425.251 1660.44 421.831C1663.21 420.939 1665.93 420.029 1668.25 418.58L1796.56 336.746C1803.03 332.602 1807.16 326.405 1808.78 319.039C1810.19 311.393 1808.32 303.578 1804.18 297.39C1796.53 286.781 1783.51 282.016 1770.86 285.181C1768.08 286.156 1765.11 287.251 1762.75 288.683L1714.24 319.496C1668.34 346.785 1609.04 333.964 1578.57 290.033C1571.23 279.796 1566.02 268.192 1563.24 255.907C1560.46 243.621 1560.17 230.904 1562.4 218.506C1564.62 206.232 1569.4 194.562 1576.43 184.254C1583.45 173.946 1592.56 165.23 1603.17 158.67L1731.22 76.8185C1739.31 71.7815 1748.01 68.1073 1757.45 65.3128C1798.87 54.5316 1842.52 70.7897 1866.96 105.824C1875.47 117.803 1881.08 131.593 1883.36 146.108C1885.64 160.624 1884.52 175.469 1880.08 189.478L1877.74 197.111L1871.11 192.532C1855.78 181.32 1838.69 172.756 1820.53 167.196L1815.94 165.846L1816.39 161.249C1816.85 154.508 1814.96 147.418 1811.27 141.929C1803.71 131.061 1790.6 126.477 1777.95 129.711C1775.17 130.621 1772.46 131.514 1770.13 132.963L1641.56 215.526C1635.1 219.838 1630.96 225.85 1629.61 233.397C1628.26 240.758 1630.06 248.844 1634.2 254.774C1641.57 265.659 1654.95 270.238 1667.36 266.987C1670.32 266.094 1673.1 265.201 1675.36 263.752L1724.41 232.47C1732.42 227.182 1741.39 223.327 1750.58 220.796C1792.27 209.928 1835.75 226.29 1860.09 261.497C1875.01 282.167 1880.76 307.671 1876.61 332.74C1874.49 344.982 1869.81 356.638 1862.87 366.948C1855.94 377.258 1846.91 385.989 1836.37 392.571L1708.05 474.246C1699.71 479.288 1690.74 483.213 1681.37 485.92L1681.36 485.963Z" fill="#FFD63D"/>
</g>
<defs>
<clipPath id="clip0_305_584">
<rect width="1949" height="552" rx="24" fill="white"/>
</clipPath>
<clipPath id="clip1_305_584">
<rect width="267.135" height="48" fill="white" transform="translate(180 24)"/>
</clipPath>
</defs>
</svg>
