<svg width="1949" height="552" viewBox="0 0 1949 552" fill="none" xmlns="http://www.w3.org/2000/svg">
<g clip-path="url(#clip0_307_602)">
<rect width="1949" height="552" rx="24" fill="#FFBB00"/>
<path d="M33.1818 291V197.909H50.0455V240.682H51.1818L87.5 197.909H108.091L72.0909 239.682L108.409 291H88.1364L60.3636 251.091L50.0455 263.273V291H33.1818ZM135.534 250.091V291H119.08V197.909H135.17V233.045H135.989C137.625 229.106 140.155 226 143.58 223.727C147.034 221.424 151.428 220.273 156.761 220.273C161.61 220.273 165.837 221.288 169.443 223.318C173.049 225.348 175.837 228.318 177.807 232.227C179.807 236.136 180.807 240.909 180.807 246.545V291H164.352V249.091C164.352 244.394 163.14 240.742 160.716 238.136C158.322 235.5 154.958 234.182 150.625 234.182C147.716 234.182 145.11 234.818 142.807 236.091C140.534 237.333 138.746 239.136 137.443 241.5C136.17 243.864 135.534 246.727 135.534 250.091ZM228.034 292.364C221.216 292.364 215.307 290.864 210.307 287.864C205.307 284.864 201.428 280.667 198.67 275.273C195.943 269.879 194.58 263.576 194.58 256.364C194.58 249.152 195.943 242.833 198.67 237.409C201.428 231.985 205.307 227.773 210.307 224.773C215.307 221.773 221.216 220.273 228.034 220.273C234.852 220.273 240.761 221.773 245.761 224.773C250.761 227.773 254.625 231.985 257.352 237.409C260.11 242.833 261.489 249.152 261.489 256.364C261.489 263.576 260.11 269.879 257.352 275.273C254.625 280.667 250.761 284.864 245.761 287.864C240.761 290.864 234.852 292.364 228.034 292.364ZM228.125 279.182C231.822 279.182 234.913 278.167 237.398 276.136C239.883 274.076 241.731 271.318 242.943 267.864C244.186 264.409 244.807 260.561 244.807 256.318C244.807 252.045 244.186 248.182 242.943 244.727C241.731 241.242 239.883 238.47 237.398 236.409C234.913 234.348 231.822 233.318 228.125 233.318C224.337 233.318 221.186 234.348 218.67 236.409C216.186 238.47 214.322 241.242 213.08 244.727C211.867 248.182 211.261 252.045 211.261 256.318C211.261 260.561 211.867 264.409 213.08 267.864C214.322 271.318 216.186 274.076 218.67 276.136C221.186 278.167 224.337 279.182 228.125 279.182ZM295.545 292.409C291.121 292.409 287.136 291.621 283.591 290.045C280.076 288.439 277.288 286.076 275.227 282.955C273.197 279.833 272.182 275.985 272.182 271.409C272.182 267.47 272.909 264.212 274.364 261.636C275.818 259.061 277.803 257 280.318 255.455C282.833 253.909 285.667 252.742 288.818 251.955C292 251.136 295.288 250.545 298.682 250.182C302.773 249.758 306.091 249.379 308.636 249.045C311.182 248.682 313.03 248.136 314.182 247.409C315.364 246.652 315.955 245.485 315.955 243.909V243.636C315.955 240.212 314.939 237.561 312.909 235.682C310.879 233.803 307.955 232.864 304.136 232.864C300.106 232.864 296.909 233.742 294.545 235.5C292.212 237.258 290.636 239.333 289.818 241.727L274.455 239.545C275.667 235.303 277.667 231.758 280.455 228.909C283.242 226.03 286.652 223.879 290.682 222.455C294.712 221 299.167 220.273 304.045 220.273C307.409 220.273 310.758 220.667 314.091 221.455C317.424 222.242 320.47 223.545 323.227 225.364C325.985 227.152 328.197 229.591 329.864 232.682C331.561 235.773 332.409 239.636 332.409 244.273V291H316.591V281.409H316.045C315.045 283.348 313.636 285.167 311.818 286.864C310.03 288.53 307.773 289.879 305.045 290.909C302.348 291.909 299.182 292.409 295.545 292.409ZM299.818 280.318C303.121 280.318 305.985 279.667 308.409 278.364C310.833 277.03 312.697 275.273 314 273.091C315.333 270.909 316 268.53 316 265.955V257.727C315.485 258.152 314.606 258.545 313.364 258.909C312.152 259.273 310.788 259.591 309.273 259.864C307.758 260.136 306.258 260.379 304.773 260.591C303.288 260.803 302 260.985 300.909 261.136C298.455 261.47 296.258 262.015 294.318 262.773C292.379 263.53 290.848 264.591 289.727 265.955C288.606 267.288 288.045 269.015 288.045 271.136C288.045 274.167 289.152 276.455 291.364 278C293.576 279.545 296.394 280.318 299.818 280.318ZM362.909 197.909V207.182C362.909 209.848 362.394 212.621 361.364 215.5C360.364 218.348 358.985 221.076 357.227 223.682C355.47 226.258 353.47 228.47 351.227 230.318L343.591 225.364C345.258 222.848 346.712 220.136 347.955 217.227C349.197 214.288 349.818 210.97 349.818 207.273V197.909H362.909ZM422.386 239.636L407.386 241.273C406.962 239.758 406.22 238.333 405.159 237C404.129 235.667 402.735 234.591 400.977 233.773C399.22 232.955 397.068 232.545 394.523 232.545C391.098 232.545 388.22 233.288 385.886 234.773C383.583 236.258 382.447 238.182 382.477 240.545C382.447 242.576 383.189 244.227 384.705 245.5C386.25 246.773 388.795 247.818 392.341 248.636L404.25 251.182C410.856 252.606 415.765 254.864 418.977 257.955C422.22 261.045 423.856 265.091 423.886 270.091C423.856 274.485 422.568 278.364 420.023 281.727C417.508 285.061 414.008 287.667 409.523 289.545C405.038 291.424 399.886 292.364 394.068 292.364C385.523 292.364 378.644 290.576 373.432 287C368.22 283.394 365.114 278.379 364.114 271.955L380.159 270.409C380.886 273.561 382.432 275.939 384.795 277.545C387.159 279.152 390.235 279.955 394.023 279.955C397.932 279.955 401.068 279.152 403.432 277.545C405.826 275.939 407.023 273.955 407.023 271.591C407.023 269.591 406.25 267.939 404.705 266.636C403.189 265.333 400.826 264.333 397.614 263.636L385.705 261.136C379.008 259.742 374.053 257.394 370.841 254.091C367.629 250.758 366.038 246.545 366.068 241.455C366.038 237.152 367.205 233.424 369.568 230.273C371.962 227.091 375.28 224.636 379.523 222.909C383.795 221.152 388.72 220.273 394.295 220.273C402.477 220.273 408.917 222.015 413.614 225.5C418.341 228.985 421.265 233.697 422.386 239.636ZM469.932 291V197.909H504.841C511.992 197.909 517.992 199.242 522.841 201.909C527.72 204.576 531.402 208.242 533.886 212.909C536.402 217.545 537.659 222.818 537.659 228.727C537.659 234.697 536.402 240 533.886 244.636C531.371 249.273 527.659 252.924 522.75 255.591C517.841 258.227 511.795 259.545 504.614 259.545H481.477V245.682H502.341C506.523 245.682 509.947 244.955 512.614 243.5C515.28 242.045 517.25 240.045 518.523 237.5C519.826 234.955 520.477 232.03 520.477 228.727C520.477 225.424 519.826 222.515 518.523 220C517.25 217.485 515.265 215.53 512.568 214.136C509.902 212.712 506.462 212 502.25 212H486.795V291H469.932ZM581.034 292.364C574.216 292.364 568.307 290.864 563.307 287.864C558.307 284.864 554.428 280.667 551.67 275.273C548.943 269.879 547.58 263.576 547.58 256.364C547.58 249.152 548.943 242.833 551.67 237.409C554.428 231.985 558.307 227.773 563.307 224.773C568.307 221.773 574.216 220.273 581.034 220.273C587.852 220.273 593.761 221.773 598.761 224.773C603.761 227.773 607.625 231.985 610.352 237.409C613.11 242.833 614.489 249.152 614.489 256.364C614.489 263.576 613.11 269.879 610.352 275.273C607.625 280.667 603.761 284.864 598.761 287.864C593.761 290.864 587.852 292.364 581.034 292.364ZM581.125 279.182C584.822 279.182 587.913 278.167 590.398 276.136C592.883 274.076 594.731 271.318 595.943 267.864C597.186 264.409 597.807 260.561 597.807 256.318C597.807 252.045 597.186 248.182 595.943 244.727C594.731 241.242 592.883 238.47 590.398 236.409C587.913 234.348 584.822 233.318 581.125 233.318C577.337 233.318 574.186 234.348 571.67 236.409C569.186 238.47 567.322 241.242 566.08 244.727C564.867 248.182 564.261 252.045 564.261 256.318C564.261 260.561 564.867 264.409 566.08 267.864C567.322 271.318 569.186 274.076 571.67 276.136C574.186 278.167 577.337 279.182 581.125 279.182ZM628.455 291V221.182H644.409V232.818H645.136C646.409 228.788 648.591 225.682 651.682 223.5C654.803 221.288 658.364 220.182 662.364 220.182C663.273 220.182 664.288 220.227 665.409 220.318C666.561 220.379 667.515 220.485 668.273 220.636V235.773C667.576 235.53 666.47 235.318 664.955 235.136C663.47 234.924 662.03 234.818 660.636 234.818C657.636 234.818 654.939 235.47 652.545 236.773C650.182 238.045 648.318 239.818 646.955 242.091C645.591 244.364 644.909 246.985 644.909 249.955V291H628.455ZM717.818 221.182V233.909H677.682V221.182H717.818ZM687.591 204.455H704.045V270C704.045 272.212 704.379 273.909 705.045 275.091C705.742 276.242 706.652 277.03 707.773 277.455C708.894 277.879 710.136 278.091 711.5 278.091C712.53 278.091 713.47 278.015 714.318 277.864C715.197 277.712 715.864 277.576 716.318 277.455L719.091 290.318C718.212 290.621 716.955 290.955 715.318 291.318C713.712 291.682 711.742 291.894 709.409 291.955C705.288 292.076 701.576 291.455 698.273 290.091C694.97 288.697 692.348 286.545 690.409 283.636C688.5 280.727 687.561 277.091 687.591 272.727V204.455ZM766.943 221.182V233.909H725.67V221.182H766.943ZM735.989 291V214.591C735.989 209.894 736.958 205.985 738.898 202.864C740.867 199.742 743.504 197.409 746.807 195.864C750.11 194.318 753.777 193.545 757.807 193.545C760.655 193.545 763.186 193.773 765.398 194.227C767.61 194.682 769.246 195.091 770.307 195.455L767.034 208.182C766.337 207.97 765.458 207.758 764.398 207.545C763.337 207.303 762.155 207.182 760.852 207.182C757.792 207.182 755.625 207.924 754.352 209.409C753.11 210.864 752.489 212.955 752.489 215.682V291H735.989ZM807.659 292.364C800.841 292.364 794.932 290.864 789.932 287.864C784.932 284.864 781.053 280.667 778.295 275.273C775.568 269.879 774.205 263.576 774.205 256.364C774.205 249.152 775.568 242.833 778.295 237.409C781.053 231.985 784.932 227.773 789.932 224.773C794.932 221.773 800.841 220.273 807.659 220.273C814.477 220.273 820.386 221.773 825.386 224.773C830.386 227.773 834.25 231.985 836.977 237.409C839.735 242.833 841.114 249.152 841.114 256.364C841.114 263.576 839.735 269.879 836.977 275.273C834.25 280.667 830.386 284.864 825.386 287.864C820.386 290.864 814.477 292.364 807.659 292.364ZM807.75 279.182C811.447 279.182 814.538 278.167 817.023 276.136C819.508 274.076 821.356 271.318 822.568 267.864C823.811 264.409 824.432 260.561 824.432 256.318C824.432 252.045 823.811 248.182 822.568 244.727C821.356 241.242 819.508 238.47 817.023 236.409C814.538 234.348 811.447 233.318 807.75 233.318C803.962 233.318 800.811 234.348 798.295 236.409C795.811 238.47 793.947 241.242 792.705 244.727C791.492 248.182 790.886 252.045 790.886 256.318C790.886 260.561 791.492 264.409 792.705 267.864C793.947 271.318 795.811 274.076 798.295 276.136C800.811 278.167 803.962 279.182 807.75 279.182ZM871.534 197.909V291H855.08V197.909H871.534ZM888.455 291V221.182H904.909V291H888.455ZM896.727 211.273C894.121 211.273 891.879 210.409 890 208.682C888.121 206.924 887.182 204.818 887.182 202.364C887.182 199.879 888.121 197.773 890 196.045C891.879 194.288 894.121 193.409 896.727 193.409C899.364 193.409 901.606 194.288 903.455 196.045C905.333 197.773 906.273 199.879 906.273 202.364C906.273 204.818 905.333 206.924 903.455 208.682C901.606 210.409 899.364 211.273 896.727 211.273ZM952.284 292.364C945.466 292.364 939.557 290.864 934.557 287.864C929.557 284.864 925.678 280.667 922.92 275.273C920.193 269.879 918.83 263.576 918.83 256.364C918.83 249.152 920.193 242.833 922.92 237.409C925.678 231.985 929.557 227.773 934.557 224.773C939.557 221.773 945.466 220.273 952.284 220.273C959.102 220.273 965.011 221.773 970.011 224.773C975.011 227.773 978.875 231.985 981.602 237.409C984.36 242.833 985.739 249.152 985.739 256.364C985.739 263.576 984.36 269.879 981.602 275.273C978.875 280.667 975.011 284.864 970.011 287.864C965.011 290.864 959.102 292.364 952.284 292.364ZM952.375 279.182C956.072 279.182 959.163 278.167 961.648 276.136C964.133 274.076 965.981 271.318 967.193 267.864C968.436 264.409 969.057 260.561 969.057 256.318C969.057 252.045 968.436 248.182 967.193 244.727C965.981 241.242 964.133 238.47 961.648 236.409C959.163 234.348 956.072 233.318 952.375 233.318C948.587 233.318 945.436 234.348 942.92 236.409C940.436 238.47 938.572 241.242 937.33 244.727C936.117 248.182 935.511 252.045 935.511 256.318C935.511 260.561 936.117 264.409 937.33 267.864C938.572 271.318 940.436 274.076 942.92 276.136C945.436 278.167 948.587 279.182 952.375 279.182Z" fill="#262422"/>
<path d="M27.5227 377V347.909H37.3523C39.6345 347.909 41.5 348.321 42.9489 349.145C44.4072 349.959 45.4867 351.062 46.1875 352.455C46.8883 353.847 47.2386 355.4 47.2386 357.114C47.2386 358.828 46.8883 360.385 46.1875 361.787C45.4962 363.188 44.4261 364.306 42.9773 365.139C41.5284 365.963 39.6723 366.375 37.4091 366.375H30.3636V363.25H37.2955C38.858 363.25 40.1127 362.98 41.0597 362.44C42.0066 361.901 42.6932 361.171 43.1193 360.253C43.5549 359.325 43.7727 358.278 43.7727 357.114C43.7727 355.949 43.5549 354.907 43.1193 353.989C42.6932 353.07 42.0019 352.35 41.0455 351.83C40.089 351.299 38.8201 351.034 37.2386 351.034H31.0455V377H27.5227ZM61.0881 377.455C59.1184 377.455 57.3902 376.986 55.9034 376.048C54.4261 375.111 53.2708 373.799 52.4375 372.114C51.6136 370.428 51.2017 368.458 51.2017 366.205C51.2017 363.932 51.6136 361.948 52.4375 360.253C53.2708 358.558 54.4261 357.241 55.9034 356.304C57.3902 355.366 59.1184 354.898 61.0881 354.898C63.0578 354.898 64.7813 355.366 66.2585 356.304C67.7453 357.241 68.9006 358.558 69.7244 360.253C70.5578 361.948 70.9744 363.932 70.9744 366.205C70.9744 368.458 70.5578 370.428 69.7244 372.114C68.9006 373.799 67.7453 375.111 66.2585 376.048C64.7813 376.986 63.0578 377.455 61.0881 377.455ZM61.0881 374.443C62.5843 374.443 63.8153 374.06 64.7812 373.293C65.7472 372.526 66.4621 371.517 66.9261 370.267C67.3902 369.017 67.6222 367.663 67.6222 366.205C67.6222 364.746 67.3902 363.387 66.9261 362.128C66.4621 360.868 65.7472 359.85 64.7812 359.074C63.8153 358.297 62.5843 357.909 61.0881 357.909C59.5919 357.909 58.3608 358.297 57.3949 359.074C56.429 359.85 55.714 360.868 55.25 362.128C54.786 363.387 54.554 364.746 54.554 366.205C54.554 367.663 54.786 369.017 55.25 370.267C55.714 371.517 56.429 372.526 57.3949 373.293C58.3608 374.06 59.5919 374.443 61.0881 374.443ZM80.2926 377L73.6449 355.182H77.1676L81.8835 371.886H82.1108L86.7699 355.182H90.3494L94.9517 371.83H95.179L99.8949 355.182H103.418L96.7699 377H93.4744L88.7017 360.239H88.3608L83.5881 377H80.2926ZM116.255 377.455C114.153 377.455 112.339 376.991 110.815 376.062C109.299 375.125 108.13 373.818 107.306 372.142C106.492 370.456 106.085 368.496 106.085 366.261C106.085 364.027 106.492 362.057 107.306 360.352C108.13 358.638 109.276 357.303 110.744 356.347C112.221 355.381 113.944 354.898 115.914 354.898C117.05 354.898 118.173 355.087 119.281 355.466C120.388 355.845 121.397 356.46 122.306 357.312C123.215 358.155 123.94 359.273 124.479 360.665C125.019 362.057 125.289 363.771 125.289 365.807V367.227H108.471V364.33H121.88C121.88 363.098 121.634 362 121.141 361.034C120.658 360.068 119.967 359.306 119.067 358.747C118.177 358.188 117.126 357.909 115.914 357.909C114.579 357.909 113.424 358.241 112.448 358.903C111.482 359.557 110.739 360.409 110.218 361.46C109.697 362.511 109.437 363.638 109.437 364.841V366.773C109.437 368.42 109.721 369.817 110.289 370.963C110.867 372.099 111.667 372.966 112.69 373.562C113.712 374.15 114.901 374.443 116.255 374.443C117.136 374.443 117.931 374.32 118.641 374.074C119.361 373.818 119.981 373.439 120.502 372.938C121.023 372.426 121.425 371.792 121.71 371.034L124.948 371.943C124.607 373.042 124.034 374.008 123.229 374.841C122.424 375.665 121.43 376.309 120.246 376.773C119.063 377.227 117.732 377.455 116.255 377.455ZM130.388 377V355.182H133.627V358.477H133.854C134.252 357.398 134.972 356.522 136.013 355.849C137.055 355.177 138.229 354.841 139.536 354.841C139.782 354.841 140.09 354.846 140.46 354.855C140.829 354.865 141.108 354.879 141.298 354.898V358.307C141.184 358.278 140.924 358.236 140.516 358.179C140.119 358.113 139.697 358.08 139.252 358.08C138.192 358.08 137.245 358.302 136.411 358.747C135.587 359.183 134.934 359.789 134.451 360.565C133.978 361.332 133.741 362.208 133.741 363.193V377H130.388ZM156.354 355.182V358.023H144.593V355.182H156.354ZM148.116 377V352.17C148.116 350.92 148.409 349.879 148.996 349.045C149.584 348.212 150.346 347.587 151.283 347.17C152.221 346.754 153.21 346.545 154.252 346.545C155.076 346.545 155.748 346.612 156.269 346.744C156.79 346.877 157.178 347 157.434 347.114L156.468 350.011C156.298 349.955 156.061 349.884 155.758 349.798C155.464 349.713 155.076 349.67 154.593 349.67C153.485 349.67 152.685 349.95 152.192 350.509C151.71 351.067 151.468 351.886 151.468 352.966V377H148.116ZM174.803 368.08V355.182H178.155V377H174.803V373.307H174.575C174.064 374.415 173.268 375.357 172.189 376.134C171.109 376.901 169.746 377.284 168.098 377.284C166.734 377.284 165.522 376.986 164.462 376.389C163.401 375.783 162.568 374.874 161.962 373.662C161.356 372.44 161.053 370.902 161.053 369.045V355.182H164.405V368.818C164.405 370.409 164.85 371.678 165.74 372.625C166.64 373.572 167.786 374.045 169.178 374.045C170.011 374.045 170.858 373.832 171.72 373.406C172.591 372.98 173.321 372.327 173.908 371.446C174.504 370.565 174.803 369.443 174.803 368.08ZM187.647 347.909V377H184.295V347.909H187.647ZM205.037 377V355.182H208.276V358.591H208.56C209.014 357.426 209.748 356.522 210.761 355.878C211.775 355.224 212.991 354.898 214.412 354.898C215.851 354.898 217.049 355.224 218.006 355.878C218.972 356.522 219.724 357.426 220.264 358.591H220.491C221.05 357.464 221.888 356.569 223.006 355.906C224.123 355.234 225.463 354.898 227.026 354.898C228.976 354.898 230.572 355.509 231.812 356.73C233.053 357.942 233.673 359.831 233.673 362.398V377H230.321V362.398C230.321 360.788 229.881 359.637 229 358.946C228.119 358.255 227.082 357.909 225.889 357.909C224.355 357.909 223.167 358.373 222.324 359.301C221.481 360.22 221.06 361.384 221.06 362.795V377H217.651V362.057C217.651 360.816 217.248 359.817 216.443 359.06C215.638 358.293 214.601 357.909 213.332 357.909C212.461 357.909 211.647 358.141 210.889 358.605C210.141 359.069 209.535 359.713 209.071 360.537C208.616 361.351 208.389 362.294 208.389 363.364V377H205.037ZM246.223 377.511C244.84 377.511 243.586 377.251 242.459 376.73C241.332 376.2 240.437 375.438 239.774 374.443C239.111 373.439 238.78 372.227 238.78 370.807C238.78 369.557 239.026 368.544 239.518 367.767C240.011 366.981 240.669 366.366 241.493 365.92C242.317 365.475 243.226 365.144 244.22 364.926C245.224 364.699 246.232 364.519 247.246 364.386C248.571 364.216 249.646 364.088 250.47 364.003C251.304 363.908 251.91 363.752 252.288 363.534C252.677 363.316 252.871 362.937 252.871 362.398V362.284C252.871 360.883 252.487 359.794 251.72 359.017C250.963 358.241 249.812 357.852 248.268 357.852C246.668 357.852 245.413 358.203 244.504 358.903C243.595 359.604 242.956 360.352 242.587 361.148L239.405 360.011C239.973 358.686 240.731 357.653 241.678 356.915C242.634 356.167 243.676 355.646 244.803 355.352C245.939 355.049 247.056 354.898 248.155 354.898C248.856 354.898 249.661 354.983 250.57 355.153C251.488 355.314 252.374 355.651 253.226 356.162C254.088 356.673 254.803 357.445 255.371 358.477C255.939 359.509 256.223 360.892 256.223 362.625V377H252.871V374.045H252.7C252.473 374.519 252.094 375.026 251.564 375.565C251.034 376.105 250.328 376.564 249.447 376.943C248.567 377.322 247.492 377.511 246.223 377.511ZM246.734 374.5C248.06 374.5 249.178 374.24 250.087 373.719C251.005 373.198 251.696 372.526 252.161 371.702C252.634 370.878 252.871 370.011 252.871 369.102V366.034C252.729 366.205 252.416 366.361 251.933 366.503C251.46 366.635 250.911 366.754 250.286 366.858C249.67 366.953 249.069 367.038 248.482 367.114C247.904 367.18 247.435 367.237 247.075 367.284C246.204 367.398 245.39 367.582 244.632 367.838C243.884 368.084 243.278 368.458 242.814 368.96C242.359 369.453 242.132 370.125 242.132 370.977C242.132 372.142 242.563 373.023 243.425 373.619C244.296 374.206 245.399 374.5 246.734 374.5ZM262.342 377V355.182H265.58V358.477H265.808C266.205 357.398 266.925 356.522 267.967 355.849C269.008 355.177 270.183 354.841 271.489 354.841C271.736 354.841 272.043 354.846 272.413 354.855C272.782 354.865 273.061 354.879 273.251 354.898V358.307C273.137 358.278 272.877 358.236 272.469 358.179C272.072 358.113 271.65 358.08 271.205 358.08C270.145 358.08 269.198 358.302 268.364 358.747C267.54 359.183 266.887 359.789 266.404 360.565C265.931 361.332 265.694 362.208 265.694 363.193V377H262.342ZM280.349 369.045L280.293 364.898H280.974L290.52 355.182H294.668L284.497 365.466H284.213L280.349 369.045ZM277.224 377V347.909H280.577V377H277.224ZM291.088 377L282.565 366.205L284.952 363.875L295.349 377H291.088ZM306.322 377.455C304.504 377.455 302.899 376.995 301.507 376.077C300.115 375.149 299.026 373.842 298.24 372.156C297.454 370.461 297.061 368.458 297.061 366.148C297.061 363.856 297.454 361.867 298.24 360.182C299.026 358.496 300.12 357.194 301.521 356.276C302.923 355.357 304.542 354.898 306.379 354.898C307.8 354.898 308.922 355.134 309.746 355.608C310.579 356.072 311.214 356.602 311.649 357.199C312.094 357.786 312.44 358.269 312.686 358.648H312.97V347.909H316.322V377H313.084V373.648H312.686C312.44 374.045 312.089 374.547 311.635 375.153C311.18 375.75 310.532 376.285 309.689 376.759C308.846 377.223 307.724 377.455 306.322 377.455ZM306.777 374.443C308.122 374.443 309.258 374.093 310.186 373.392C311.114 372.682 311.82 371.702 312.303 370.452C312.786 369.192 313.027 367.739 313.027 366.091C313.027 364.462 312.79 363.037 312.317 361.815C311.843 360.584 311.143 359.628 310.214 358.946C309.286 358.255 308.141 357.909 306.777 357.909C305.357 357.909 304.173 358.274 303.226 359.003C302.288 359.723 301.583 360.703 301.109 361.943C300.645 363.174 300.413 364.557 300.413 366.091C300.413 367.644 300.65 369.055 301.124 370.324C301.607 371.583 302.317 372.587 303.254 373.335C304.201 374.074 305.375 374.443 306.777 374.443ZM331.791 377.455C329.821 377.455 328.093 376.986 326.607 376.048C325.129 375.111 323.974 373.799 323.141 372.114C322.317 370.428 321.905 368.458 321.905 366.205C321.905 363.932 322.317 361.948 323.141 360.253C323.974 358.558 325.129 357.241 326.607 356.304C328.093 355.366 329.821 354.898 331.791 354.898C333.761 354.898 335.484 355.366 336.962 356.304C338.448 357.241 339.604 358.558 340.428 360.253C341.261 361.948 341.678 363.932 341.678 366.205C341.678 368.458 341.261 370.428 340.428 372.114C339.604 373.799 338.448 375.111 336.962 376.048C335.484 376.986 333.761 377.455 331.791 377.455ZM331.791 374.443C333.287 374.443 334.518 374.06 335.484 373.293C336.45 372.526 337.165 371.517 337.629 370.267C338.093 369.017 338.325 367.663 338.325 366.205C338.325 364.746 338.093 363.387 337.629 362.128C337.165 360.868 336.45 359.85 335.484 359.074C334.518 358.297 333.287 357.909 331.791 357.909C330.295 357.909 329.064 358.297 328.098 359.074C327.132 359.85 326.417 360.868 325.953 362.128C325.489 363.387 325.257 364.746 325.257 366.205C325.257 367.663 325.489 369.017 325.953 370.267C326.417 371.517 327.132 372.526 328.098 373.293C329.064 374.06 330.295 374.443 331.791 374.443ZM350.996 377L344.348 355.182H347.871L352.587 371.886H352.814L357.473 355.182H361.053L365.655 371.83H365.882L370.598 355.182H374.121L367.473 377H364.178L359.405 360.239H359.064L354.291 377H350.996ZM381.905 363.875V377H378.553V355.182H381.791V358.591H382.075C382.587 357.483 383.363 356.593 384.405 355.92C385.446 355.239 386.791 354.898 388.439 354.898C389.916 354.898 391.209 355.201 392.317 355.807C393.425 356.403 394.286 357.312 394.902 358.534C395.518 359.746 395.825 361.28 395.825 363.136V377H392.473V363.364C392.473 361.65 392.028 360.314 391.138 359.358C390.248 358.392 389.026 357.909 387.473 357.909C386.403 357.909 385.446 358.141 384.604 358.605C383.77 359.069 383.112 359.746 382.629 360.636C382.146 361.527 381.905 362.606 381.905 363.875ZM413.656 377V347.909H417.008V358.648H417.292C417.538 358.269 417.879 357.786 418.315 357.199C418.76 356.602 419.394 356.072 420.218 355.608C421.051 355.134 422.178 354.898 423.599 354.898C425.436 354.898 427.055 355.357 428.457 356.276C429.858 357.194 430.952 358.496 431.738 360.182C432.524 361.867 432.917 363.856 432.917 366.148C432.917 368.458 432.524 370.461 431.738 372.156C430.952 373.842 429.863 375.149 428.471 376.077C427.079 376.995 425.474 377.455 423.656 377.455C422.254 377.455 421.132 377.223 420.289 376.759C419.446 376.285 418.798 375.75 418.343 375.153C417.888 374.547 417.538 374.045 417.292 373.648H416.894V377H413.656ZM416.951 366.091C416.951 367.739 417.192 369.192 417.675 370.452C418.158 371.702 418.864 372.682 419.792 373.392C420.72 374.093 421.856 374.443 423.201 374.443C424.603 374.443 425.772 374.074 426.71 373.335C427.656 372.587 428.367 371.583 428.84 370.324C429.323 369.055 429.565 367.644 429.565 366.091C429.565 364.557 429.328 363.174 428.854 361.943C428.39 360.703 427.685 359.723 426.738 359.003C425.8 358.274 424.621 357.909 423.201 357.909C421.837 357.909 420.692 358.255 419.763 358.946C418.835 359.628 418.135 360.584 417.661 361.815C417.188 363.037 416.951 364.462 416.951 366.091ZM441.397 347.909V377H438.045V347.909H441.397ZM456.401 377.455C454.431 377.455 452.703 376.986 451.216 376.048C449.739 375.111 448.583 373.799 447.75 372.114C446.926 370.428 446.514 368.458 446.514 366.205C446.514 363.932 446.926 361.948 447.75 360.253C448.583 358.558 449.739 357.241 451.216 356.304C452.703 355.366 454.431 354.898 456.401 354.898C458.37 354.898 460.094 355.366 461.571 356.304C463.058 357.241 464.213 358.558 465.037 360.253C465.87 361.948 466.287 363.932 466.287 366.205C466.287 368.458 465.87 370.428 465.037 372.114C464.213 373.799 463.058 375.111 461.571 376.048C460.094 376.986 458.37 377.455 456.401 377.455ZM456.401 374.443C457.897 374.443 459.128 374.06 460.094 373.293C461.06 372.526 461.775 371.517 462.239 370.267C462.703 369.017 462.935 367.663 462.935 366.205C462.935 364.746 462.703 363.387 462.239 362.128C461.775 360.868 461.06 359.85 460.094 359.074C459.128 358.297 457.897 357.909 456.401 357.909C454.904 357.909 453.673 358.297 452.707 359.074C451.741 359.85 451.027 360.868 450.562 362.128C450.098 363.387 449.866 364.746 449.866 366.205C449.866 367.663 450.098 369.017 450.562 370.267C451.027 371.517 451.741 372.526 452.707 373.293C453.673 374.06 454.904 374.443 456.401 374.443ZM480.211 385.636C478.592 385.636 477.2 385.428 476.035 385.011C474.87 384.604 473.899 384.064 473.123 383.392C472.356 382.729 471.745 382.019 471.29 381.261L473.961 379.386C474.264 379.784 474.647 380.239 475.112 380.75C475.576 381.271 476.21 381.721 477.015 382.099C477.829 382.488 478.895 382.682 480.211 382.682C481.972 382.682 483.426 382.256 484.572 381.403C485.718 380.551 486.29 379.216 486.29 377.398V372.966H486.006C485.76 373.364 485.41 373.856 484.955 374.443C484.51 375.021 483.866 375.537 483.023 375.991C482.19 376.437 481.063 376.659 479.643 376.659C477.881 376.659 476.3 376.242 474.898 375.409C473.506 374.576 472.403 373.364 471.589 371.773C470.784 370.182 470.381 368.25 470.381 365.977C470.381 363.742 470.774 361.796 471.56 360.139C472.346 358.473 473.44 357.185 474.842 356.276C476.243 355.357 477.862 354.898 479.7 354.898C481.12 354.898 482.247 355.134 483.08 355.608C483.923 356.072 484.567 356.602 485.012 357.199C485.467 357.786 485.817 358.269 486.063 358.648H486.404V355.182H489.643V377.625C489.643 379.5 489.217 381.025 488.364 382.199C487.522 383.383 486.385 384.249 484.955 384.798C483.535 385.357 481.953 385.636 480.211 385.636ZM480.097 373.648C481.442 373.648 482.578 373.34 483.506 372.724C484.434 372.109 485.14 371.223 485.623 370.068C486.106 368.913 486.347 367.53 486.347 365.92C486.347 364.348 486.111 362.961 485.637 361.759C485.164 360.556 484.463 359.614 483.535 358.932C482.607 358.25 481.461 357.909 480.097 357.909C478.677 357.909 477.493 358.269 476.546 358.989C475.609 359.708 474.903 360.674 474.43 361.886C473.966 363.098 473.734 364.443 473.734 365.92C473.734 367.436 473.97 368.776 474.444 369.94C474.927 371.096 475.637 372.005 476.575 372.668C477.522 373.321 478.696 373.648 480.097 373.648ZM504.586 385.636C502.967 385.636 501.575 385.428 500.41 385.011C499.245 384.604 498.274 384.064 497.498 383.392C496.731 382.729 496.12 382.019 495.665 381.261L498.336 379.386C498.639 379.784 499.022 380.239 499.487 380.75C499.951 381.271 500.585 381.721 501.39 382.099C502.204 382.488 503.27 382.682 504.586 382.682C506.347 382.682 507.801 382.256 508.947 381.403C510.093 380.551 510.665 379.216 510.665 377.398V372.966H510.381C510.135 373.364 509.785 373.856 509.33 374.443C508.885 375.021 508.241 375.537 507.398 375.991C506.565 376.437 505.438 376.659 504.018 376.659C502.256 376.659 500.675 376.242 499.273 375.409C497.881 374.576 496.778 373.364 495.964 371.773C495.159 370.182 494.756 368.25 494.756 365.977C494.756 363.742 495.149 361.796 495.935 360.139C496.721 358.473 497.815 357.185 499.217 356.276C500.618 355.357 502.237 354.898 504.075 354.898C505.495 354.898 506.622 355.134 507.455 355.608C508.298 356.072 508.942 356.602 509.387 357.199C509.842 357.786 510.192 358.269 510.438 358.648H510.779V355.182H514.018V377.625C514.018 379.5 513.592 381.025 512.739 382.199C511.897 383.383 510.76 384.249 509.33 384.798C507.91 385.357 506.328 385.636 504.586 385.636ZM504.472 373.648C505.817 373.648 506.953 373.34 507.881 372.724C508.809 372.109 509.515 371.223 509.998 370.068C510.481 368.913 510.722 367.53 510.722 365.92C510.722 364.348 510.486 362.961 510.012 361.759C509.539 360.556 508.838 359.614 507.91 358.932C506.982 358.25 505.836 357.909 504.472 357.909C503.052 357.909 501.868 358.269 500.921 358.989C499.984 359.708 499.278 360.674 498.805 361.886C498.341 363.098 498.109 364.443 498.109 365.92C498.109 367.436 498.345 368.776 498.819 369.94C499.302 371.096 500.012 372.005 500.95 372.668C501.897 373.321 503.071 373.648 504.472 373.648ZM520.154 377V355.182H523.506V377H520.154ZM521.859 351.545C521.205 351.545 520.642 351.323 520.168 350.878C519.704 350.433 519.472 349.898 519.472 349.273C519.472 348.648 519.704 348.113 520.168 347.668C520.642 347.223 521.205 347 521.859 347C522.512 347 523.071 347.223 523.535 347.668C524.008 348.113 524.245 348.648 524.245 349.273C524.245 349.898 524.008 350.433 523.535 350.878C523.071 351.323 522.512 351.545 521.859 351.545ZM532.999 363.875V377H529.646V355.182H532.885V358.591H533.169C533.68 357.483 534.457 356.593 535.499 355.92C536.54 355.239 537.885 354.898 539.533 354.898C541.01 354.898 542.303 355.201 543.411 355.807C544.518 356.403 545.38 357.312 545.996 358.534C546.611 359.746 546.919 361.28 546.919 363.136V377H543.567V363.364C543.567 361.65 543.122 360.314 542.232 359.358C541.341 358.392 540.12 357.909 538.567 357.909C537.497 357.909 536.54 358.141 535.697 358.605C534.864 359.069 534.206 359.746 533.723 360.636C533.24 361.527 532.999 362.606 532.999 363.875ZM561.852 385.636C560.232 385.636 558.84 385.428 557.675 385.011C556.511 384.604 555.54 384.064 554.763 383.392C553.996 382.729 553.386 382.019 552.931 381.261L555.602 379.386C555.905 379.784 556.288 380.239 556.752 380.75C557.216 381.271 557.851 381.721 558.656 382.099C559.47 382.488 560.535 382.682 561.852 382.682C563.613 382.682 565.067 382.256 566.212 381.403C567.358 380.551 567.931 379.216 567.931 377.398V372.966H567.647C567.401 373.364 567.05 373.856 566.596 374.443C566.151 375.021 565.507 375.537 564.664 375.991C563.831 376.437 562.704 376.659 561.283 376.659C559.522 376.659 557.941 376.242 556.539 375.409C555.147 374.576 554.044 373.364 553.229 371.773C552.424 370.182 552.022 368.25 552.022 365.977C552.022 363.742 552.415 361.796 553.201 360.139C553.987 358.473 555.081 357.185 556.482 356.276C557.884 355.357 559.503 354.898 561.34 354.898C562.761 354.898 563.888 355.134 564.721 355.608C565.564 356.072 566.208 356.602 566.653 357.199C567.107 357.786 567.458 358.269 567.704 358.648H568.045V355.182H571.283V377.625C571.283 379.5 570.857 381.025 570.005 382.199C569.162 383.383 568.026 384.249 566.596 384.798C565.175 385.357 563.594 385.636 561.852 385.636ZM561.738 373.648C563.083 373.648 564.219 373.34 565.147 372.724C566.075 372.109 566.781 371.223 567.263 370.068C567.746 368.913 567.988 367.53 567.988 365.92C567.988 364.348 567.751 362.961 567.278 361.759C566.804 360.556 566.103 359.614 565.175 358.932C564.247 358.25 563.102 357.909 561.738 357.909C560.317 357.909 559.134 358.269 558.187 358.989C557.249 359.708 556.544 360.674 556.07 361.886C555.606 363.098 555.374 364.443 555.374 365.92C555.374 367.436 555.611 368.776 556.085 369.94C556.567 371.096 557.278 372.005 558.215 372.668C559.162 373.321 560.336 373.648 561.738 373.648ZM588.67 385.182V355.182H591.908V358.648H592.306C592.552 358.269 592.893 357.786 593.329 357.199C593.774 356.602 594.408 356.072 595.232 355.608C596.066 355.134 597.192 354.898 598.613 354.898C600.45 354.898 602.069 355.357 603.471 356.276C604.872 357.194 605.966 358.496 606.752 360.182C607.538 361.867 607.931 363.856 607.931 366.148C607.931 368.458 607.538 370.461 606.752 372.156C605.966 373.842 604.877 375.149 603.485 376.077C602.093 376.995 600.488 377.455 598.67 377.455C597.268 377.455 596.146 377.223 595.303 376.759C594.46 376.285 593.812 375.75 593.357 375.153C592.903 374.547 592.552 374.045 592.306 373.648H592.022V385.182H588.67ZM591.965 366.091C591.965 367.739 592.207 369.192 592.69 370.452C593.173 371.702 593.878 372.682 594.806 373.392C595.734 374.093 596.871 374.443 598.215 374.443C599.617 374.443 600.786 374.074 601.724 373.335C602.671 372.587 603.381 371.583 603.854 370.324C604.337 369.055 604.579 367.644 604.579 366.091C604.579 364.557 604.342 363.174 603.869 361.943C603.405 360.703 602.699 359.723 601.752 359.003C600.815 358.274 599.636 357.909 598.215 357.909C596.852 357.909 595.706 358.255 594.778 358.946C593.85 359.628 593.149 360.584 592.675 361.815C592.202 363.037 591.965 364.462 591.965 366.091ZM621.908 377.455C619.939 377.455 618.21 376.986 616.724 376.048C615.246 375.111 614.091 373.799 613.258 372.114C612.434 370.428 612.022 368.458 612.022 366.205C612.022 363.932 612.434 361.948 613.258 360.253C614.091 358.558 615.246 357.241 616.724 356.304C618.21 355.366 619.939 354.898 621.908 354.898C623.878 354.898 625.602 355.366 627.079 356.304C628.566 357.241 629.721 358.558 630.545 360.253C631.378 361.948 631.795 363.932 631.795 366.205C631.795 368.458 631.378 370.428 630.545 372.114C629.721 373.799 628.566 375.111 627.079 376.048C625.602 376.986 623.878 377.455 621.908 377.455ZM621.908 374.443C623.405 374.443 624.636 374.06 625.602 373.293C626.567 372.526 627.282 371.517 627.746 370.267C628.21 369.017 628.442 367.663 628.442 366.205C628.442 364.746 628.21 363.387 627.746 362.128C627.282 360.868 626.567 359.85 625.602 359.074C624.636 358.297 623.405 357.909 621.908 357.909C620.412 357.909 619.181 358.297 618.215 359.074C617.249 359.85 616.534 360.868 616.07 362.128C615.606 363.387 615.374 364.746 615.374 366.205C615.374 367.663 615.606 369.017 616.07 370.267C616.534 371.517 617.249 372.526 618.215 373.293C619.181 374.06 620.412 374.443 621.908 374.443ZM636.912 377V355.182H640.151V358.477H640.378C640.776 357.398 641.495 356.522 642.537 355.849C643.579 355.177 644.753 354.841 646.06 354.841C646.306 354.841 646.614 354.846 646.983 354.855C647.352 354.865 647.632 354.879 647.821 354.898V358.307C647.707 358.278 647.447 358.236 647.04 358.179C646.642 358.113 646.221 358.08 645.776 358.08C644.715 358.08 643.768 358.302 642.935 358.747C642.111 359.183 641.457 359.789 640.974 360.565C640.501 361.332 640.264 362.208 640.264 363.193V377H636.912ZM662.651 355.182V358.023H651.344V355.182H662.651ZM654.639 349.955H657.991V370.75C657.991 371.697 658.129 372.407 658.403 372.881C658.688 373.345 659.047 373.657 659.483 373.818C659.928 373.97 660.397 374.045 660.889 374.045C661.259 374.045 661.562 374.027 661.798 373.989C662.035 373.941 662.224 373.903 662.366 373.875L663.048 376.886C662.821 376.972 662.504 377.057 662.097 377.142C661.689 377.237 661.173 377.284 660.548 377.284C659.601 377.284 658.673 377.08 657.764 376.673C656.865 376.266 656.116 375.646 655.52 374.812C654.933 373.979 654.639 372.928 654.639 371.659V349.955ZM677.409 355.182V358.023H665.648V355.182H677.409ZM669.17 377V352.17C669.17 350.92 669.464 349.879 670.051 349.045C670.638 348.212 671.401 347.587 672.338 347.17C673.276 346.754 674.265 346.545 675.307 346.545C676.131 346.545 676.803 346.612 677.324 346.744C677.845 346.877 678.233 347 678.489 347.114L677.523 350.011C677.352 349.955 677.116 349.884 676.812 349.798C676.519 349.713 676.131 349.67 675.648 349.67C674.54 349.67 673.74 349.95 673.247 350.509C672.764 351.067 672.523 351.886 672.523 352.966V377H669.17ZM690.072 377.455C688.103 377.455 686.375 376.986 684.888 376.048C683.411 375.111 682.255 373.799 681.422 372.114C680.598 370.428 680.186 368.458 680.186 366.205C680.186 363.932 680.598 361.948 681.422 360.253C682.255 358.558 683.411 357.241 684.888 356.304C686.375 355.366 688.103 354.898 690.072 354.898C692.042 354.898 693.766 355.366 695.243 356.304C696.73 357.241 697.885 358.558 698.709 360.253C699.542 361.948 699.959 363.932 699.959 366.205C699.959 368.458 699.542 370.428 698.709 372.114C697.885 373.799 696.73 375.111 695.243 376.048C693.766 376.986 692.042 377.455 690.072 377.455ZM690.072 374.443C691.569 374.443 692.8 374.06 693.766 373.293C694.732 372.526 695.446 371.517 695.911 370.267C696.375 369.017 696.607 367.663 696.607 366.205C696.607 364.746 696.375 363.387 695.911 362.128C695.446 360.868 694.732 359.85 693.766 359.074C692.8 358.297 691.569 357.909 690.072 357.909C688.576 357.909 687.345 358.297 686.379 359.074C685.413 359.85 684.698 360.868 684.234 362.128C683.77 363.387 683.538 364.746 683.538 366.205C683.538 367.663 683.77 369.017 684.234 370.267C684.698 371.517 685.413 372.526 686.379 373.293C687.345 374.06 688.576 374.443 690.072 374.443ZM708.428 347.909V377H705.076V347.909H708.428ZM714.568 377V355.182H717.92V377H714.568ZM716.273 351.545C715.619 351.545 715.056 351.323 714.582 350.878C714.118 350.433 713.886 349.898 713.886 349.273C713.886 348.648 714.118 348.113 714.582 347.668C715.056 347.223 715.619 347 716.273 347C716.926 347 717.485 347.223 717.949 347.668C718.422 348.113 718.659 348.648 718.659 349.273C718.659 349.898 718.422 350.433 717.949 350.878C717.485 351.323 716.926 351.545 716.273 351.545ZM732.924 377.455C730.954 377.455 729.226 376.986 727.739 376.048C726.262 375.111 725.107 373.799 724.273 372.114C723.45 370.428 723.038 368.458 723.038 366.205C723.038 363.932 723.45 361.948 724.273 360.253C725.107 358.558 726.262 357.241 727.739 356.304C729.226 355.366 730.954 354.898 732.924 354.898C734.894 354.898 736.617 355.366 738.094 356.304C739.581 357.241 740.737 358.558 741.56 360.253C742.394 361.948 742.81 363.932 742.81 366.205C742.81 368.458 742.394 370.428 741.56 372.114C740.737 373.799 739.581 375.111 738.094 376.048C736.617 376.986 734.894 377.455 732.924 377.455ZM732.924 374.443C734.42 374.443 735.651 374.06 736.617 373.293C737.583 372.526 738.298 371.517 738.762 370.267C739.226 369.017 739.458 367.663 739.458 366.205C739.458 364.746 739.226 363.387 738.762 362.128C738.298 360.868 737.583 359.85 736.617 359.074C735.651 358.297 734.42 357.909 732.924 357.909C731.428 357.909 730.197 358.297 729.231 359.074C728.265 359.85 727.55 360.868 727.086 362.128C726.622 363.387 726.39 364.746 726.39 366.205C726.39 367.663 726.622 369.017 727.086 370.267C727.55 371.517 728.265 372.526 729.231 373.293C730.197 374.06 731.428 374.443 732.924 374.443Z" fill="#262422"/>
<path d="M26.8182 59.5V36.2273H34.9545C36.5758 36.2273 37.9129 36.5076 38.9659 37.0682C40.0189 37.6212 40.803 38.3674 41.3182 39.3068C41.8333 40.2386 42.0909 41.2727 42.0909 42.4091C42.0909 43.4091 41.9129 44.2348 41.5568 44.8864C41.2083 45.5379 40.7462 46.053 40.1705 46.4318C39.6023 46.8106 38.9848 47.0909 38.3182 47.2727V47.5C39.0303 47.5455 39.7462 47.7955 40.4659 48.25C41.1856 48.7045 41.7879 49.3561 42.2727 50.2045C42.7576 51.053 43 52.0909 43 53.3182C43 54.4848 42.7348 55.5341 42.2045 56.4659C41.6742 57.3977 40.8371 58.1364 39.6932 58.6818C38.5492 59.2273 37.0606 59.5 35.2273 59.5H26.8182ZM29.6364 57H35.2273C37.0682 57 38.375 56.6439 39.1477 55.9318C39.928 55.2121 40.3182 54.3409 40.3182 53.3182C40.3182 52.5303 40.1174 51.803 39.7159 51.1364C39.3144 50.4621 38.7424 49.9242 38 49.5227C37.2576 49.1136 36.3788 48.9091 35.3636 48.9091H29.6364V57ZM29.6364 46.4545H34.8636C35.7121 46.4545 36.4773 46.2879 37.1591 45.9545C37.8485 45.6212 38.3939 45.1515 38.7955 44.5455C39.2045 43.9394 39.4091 43.2273 39.4091 42.4091C39.4091 41.3864 39.053 40.5189 38.3409 39.8068C37.6288 39.0871 36.5 38.7273 34.9545 38.7273H29.6364V46.4545ZM58.267 52.3636V42.0455H60.9489V59.5H58.267V56.5455H58.0852C57.6761 57.4318 57.0398 58.1856 56.1761 58.8068C55.3125 59.4205 54.2216 59.7273 52.9034 59.7273C51.8125 59.7273 50.8428 59.4886 49.9943 59.0114C49.1458 58.5265 48.4792 57.7992 47.9943 56.8295C47.5095 55.8523 47.267 54.6212 47.267 53.1364V42.0455H49.9489V52.9545C49.9489 54.2273 50.3049 55.2424 51.017 56C51.7367 56.7576 52.6534 57.1364 53.767 57.1364C54.4337 57.1364 55.1117 56.9659 55.8011 56.625C56.4981 56.2841 57.0814 55.7614 57.5511 55.0568C58.0284 54.3523 58.267 53.4545 58.267 52.3636ZM65.8608 59.5V42.0455H68.5426V59.5H65.8608ZM67.2244 39.1364C66.7017 39.1364 66.2509 38.9583 65.8722 38.6023C65.5009 38.2462 65.3153 37.8182 65.3153 37.3182C65.3153 36.8182 65.5009 36.3902 65.8722 36.0341C66.2509 35.678 66.7017 35.5 67.2244 35.5C67.7472 35.5 68.1941 35.678 68.5653 36.0341C68.9441 36.3902 69.1335 36.8182 69.1335 37.3182C69.1335 37.8182 68.9441 38.2462 68.5653 38.6023C68.1941 38.9583 67.7472 39.1364 67.2244 39.1364ZM76.1364 36.2273V59.5H73.4545V36.2273H76.1364ZM88.6392 42.0455V44.3182H79.5938V42.0455H88.6392ZM82.2301 37.8636H84.9119V54.5C84.9119 55.2576 85.0218 55.8258 85.2415 56.2045C85.4688 56.5758 85.7566 56.8258 86.1051 56.9545C86.4612 57.0758 86.8362 57.1364 87.2301 57.1364C87.5256 57.1364 87.768 57.1212 87.9574 57.0909C88.1468 57.053 88.2983 57.0227 88.4119 57L88.9574 59.4091C88.7756 59.4773 88.5218 59.5455 88.196 59.6136C87.8703 59.6894 87.4574 59.7273 86.9574 59.7273C86.1998 59.7273 85.4574 59.5644 84.7301 59.2386C84.0104 58.9129 83.4119 58.4167 82.9347 57.75C82.465 57.0833 82.2301 56.2424 82.2301 55.2273V37.8636ZM105.628 59.5L100.31 42.0455H103.128L106.901 55.4091H107.082L110.81 42.0455H113.673L117.355 55.3636H117.537L121.31 42.0455H124.128L118.81 59.5H116.173L112.355 46.0909H112.082L108.264 59.5H105.628ZM127.673 59.5V42.0455H130.355V59.5H127.673ZM129.037 39.1364C128.514 39.1364 128.063 38.9583 127.685 38.6023C127.313 38.2462 127.128 37.8182 127.128 37.3182C127.128 36.8182 127.313 36.3902 127.685 36.0341C128.063 35.678 128.514 35.5 129.037 35.5C129.56 35.5 130.007 35.678 130.378 36.0341C130.757 36.3902 130.946 36.8182 130.946 37.3182C130.946 37.8182 130.757 38.2462 130.378 38.6023C130.007 38.9583 129.56 39.1364 129.037 39.1364ZM142.858 42.0455V44.3182H133.812V42.0455H142.858ZM136.449 37.8636H139.131V54.5C139.131 55.2576 139.241 55.8258 139.46 56.2045C139.688 56.5758 139.975 56.8258 140.324 56.9545C140.68 57.0758 141.055 57.1364 141.449 57.1364C141.744 57.1364 141.987 57.1212 142.176 57.0909C142.366 57.053 142.517 57.0227 142.631 57L143.176 59.4091C142.994 59.4773 142.741 59.5455 142.415 59.6136C142.089 59.6894 141.676 59.7273 141.176 59.7273C140.419 59.7273 139.676 59.5644 138.949 59.2386C138.229 58.9129 137.631 58.4167 137.153 57.75C136.684 57.0833 136.449 56.2424 136.449 55.2273V37.8636ZM149.949 49V59.5H147.267V36.2273H149.949V44.7727H150.176C150.585 43.8712 151.199 43.1553 152.017 42.625C152.843 42.0871 153.941 41.8182 155.312 41.8182C156.502 41.8182 157.544 42.0568 158.438 42.5341C159.331 43.0038 160.025 43.7273 160.517 44.7045C161.017 45.6742 161.267 46.9091 161.267 48.4091V59.5H158.585V48.5909C158.585 47.2045 158.225 46.1326 157.506 45.375C156.794 44.6098 155.805 44.2273 154.54 44.2273C153.661 44.2273 152.873 44.4129 152.176 44.7841C151.487 45.1553 150.941 45.697 150.54 46.4091C150.146 47.1212 149.949 47.9848 149.949 49Z" fill="#262422"/>
<g clip-path="url(#clip1_307_602)">
<path d="M403.823 60.6208L396.66 47.3112L392.15 52.7666V60.6213H388.368V35.1652H392.15V47.4928L401.969 35.1652H406.333L399.206 44.1109L408.261 60.6208H403.823ZM416.441 60.6208V35.1652H420.223V60.6208H416.441ZM439.933 38.8027V60.6219H436.151V38.8017H428.951V35.1652H447.133V38.8017H439.933V38.8027Z" fill="#262422"/>
<path d="M243.761 61.0576C241.687 61.1097 239.647 60.5329 237.907 59.4032C236.281 58.3312 235.074 56.7325 234.488 54.8755L238.052 53.5665C238.546 54.7063 239.353 55.6828 240.379 56.3828C241.421 57.0811 242.652 57.4429 243.906 57.4195C245.112 57.4823 246.302 57.1221 247.271 56.4011C247.692 56.0474 248.024 55.6002 248.242 55.0952C248.46 54.5903 248.557 54.0414 248.525 53.4924C248.53 52.9807 248.411 52.4752 248.18 52.019C247.978 51.6111 247.714 51.2369 247.397 50.9098C246.997 50.5454 246.544 50.2449 246.052 50.0187C245.446 49.7161 244.943 49.486 244.543 49.3279C243.96 49.1031 243.372 48.8908 242.779 48.6914C241.809 48.3522 241.082 48.0856 240.598 47.8915C239.941 47.6121 239.303 47.2902 238.688 46.9279C238.026 46.5767 237.425 46.1223 236.906 45.5818C236.458 45.0546 236.096 44.4593 235.834 43.8183C235.331 42.5961 235.226 41.2469 235.532 39.9613C235.838 38.6758 236.541 37.5191 237.541 36.6548C238.995 35.3703 240.971 34.7275 243.468 34.7275C245.553 34.7275 247.268 35.1882 248.614 36.1091C249.92 36.9775 250.879 38.2777 251.323 39.7821L247.832 40.9456C247.481 40.1578 246.889 39.502 246.141 39.0731C245.236 38.571 244.212 38.3256 243.178 38.3635C242.163 38.3054 241.158 38.587 240.322 39.1639C239.981 39.4287 239.708 39.7719 239.528 40.1645C239.348 40.5571 239.265 40.9874 239.286 41.4188C239.289 41.7496 239.362 42.076 239.5 42.3767C239.638 42.6775 239.837 42.9457 240.086 43.1641C240.569 43.6398 241.136 44.0219 241.759 44.291C242.341 44.5336 243.227 44.8608 244.414 45.2729C245.14 45.5401 245.68 45.7399 246.031 45.8729C246.384 46.006 246.899 46.2298 247.577 46.5455C248.121 46.7861 248.644 47.0716 249.141 47.399C249.586 47.7186 250.011 48.0646 250.414 48.4352C250.852 48.8161 251.227 49.2637 251.523 49.7625C251.806 50.28 252.025 50.8293 252.178 51.3987C252.363 52.0679 252.455 52.7598 252.451 53.4543C252.451 55.8298 251.639 57.6908 250.014 59.0354C248.39 60.3804 246.305 61.0545 243.761 61.0576ZM267.071 60.6215L258.343 35.1653H262.416L268.198 52.9112C268.517 53.8658 268.784 54.8372 268.998 55.8209C269.211 54.8369 269.478 53.8655 269.798 52.9112L275.507 35.1653H279.544L270.852 60.6209L267.071 60.6215ZM287.253 60.6215V35.1653H303.035V38.7288H291.035V45.7112H298.78V49.2747H291.035V57.0575H303.837V60.622L287.253 60.6215ZM313.471 60.6215V35.1653H317.254V56.9844H329.69V60.6209L313.471 60.6215ZM343.944 38.8023V60.6215H340.162V38.8018H332.962V35.1653H351.145V38.8018H343.945L343.944 38.8023ZM358.961 60.6215V35.1653H374.744V38.7288H362.745V45.7112H370.49V49.2747H362.745V57.0575H375.547V60.622L358.961 60.6215Z" fill="#262422"/>
<path d="M217.237 30.3246C212.799 23.9724 204.034 22.0884 197.696 26.1272L186.566 33.2213C185.062 34.1672 183.772 35.4165 182.779 36.8894C181.786 38.3622 181.111 40.0261 180.797 41.7746C180.266 44.7197 180.732 47.7577 182.122 50.4079C181.169 51.8531 180.52 53.4766 180.213 55.1802C179.895 56.9639 179.938 58.7929 180.337 60.56C180.736 62.3271 181.484 63.9968 182.537 65.471C186.975 71.8237 195.741 73.7072 202.078 69.6679L213.208 62.5738C214.712 61.628 216.001 60.3787 216.995 58.906C217.988 57.4333 218.663 55.7694 218.977 54.0209C219.508 51.0757 219.042 48.0376 217.652 45.3872C218.604 43.942 219.254 42.3186 219.561 40.6153C219.878 38.8316 219.836 37.0025 219.437 35.2354C219.038 33.4682 218.29 31.7986 217.237 30.3246Z" fill="#FF3E00"/>
<path d="M196.609 66.0689C194.857 66.5244 193.008 66.4313 191.311 65.8022C189.614 65.1732 188.15 64.0385 187.119 62.5513C186.486 61.6649 186.036 60.661 185.796 59.5985C185.556 58.5359 185.53 57.4361 185.721 56.3635C185.785 56.0119 185.874 55.6644 185.987 55.3247L186.196 54.6846L186.767 55.103C188.083 56.0711 189.555 56.8072 191.119 57.2797L191.533 57.4049L191.495 57.8181C191.444 58.4055 191.603 58.9918 191.943 59.4731C192.254 59.9213 192.695 60.2633 193.206 60.4529C193.717 60.6425 194.275 60.6706 194.802 60.5333C195.044 60.4692 195.275 60.3686 195.486 60.2348L206.617 53.1387C206.889 52.9671 207.123 52.7408 207.303 52.474C207.483 52.2072 207.605 51.9058 207.662 51.5891C207.719 51.2658 207.711 50.9343 207.639 50.6141C207.567 50.2938 207.431 49.9912 207.241 49.7239C206.93 49.2756 206.489 48.9335 205.978 48.7438C205.467 48.554 204.909 48.5257 204.382 48.6627C204.14 48.7266 203.909 48.8273 203.698 48.9611L199.451 51.6689C198.752 52.113 197.989 52.4476 197.189 52.6613C195.438 53.1166 193.589 53.0234 191.892 52.3944C190.195 51.7654 188.732 50.6307 187.7 49.1437C187.067 48.2573 186.617 47.2534 186.377 46.1908C186.137 45.1283 186.111 44.0284 186.302 42.9559C186.491 41.9044 186.898 40.904 187.496 40.0186C188.094 39.1332 188.87 38.3824 189.774 37.8141L200.904 30.72C201.603 30.2752 202.366 29.94 203.166 29.7261C204.918 29.2707 206.767 29.3638 208.464 29.9929C210.161 30.6219 211.624 31.7566 212.655 33.2437C213.289 34.1301 213.738 35.134 213.978 36.1966C214.219 37.2592 214.244 38.359 214.054 39.4315C213.988 39.784 213.899 40.1316 213.786 40.4719L213.576 41.1131L213.006 40.6957C211.69 39.7276 210.218 38.9914 208.654 38.519L208.239 38.3938L208.278 37.9806C208.328 37.3933 208.169 36.8071 207.829 36.3256C207.519 35.8778 207.078 35.536 206.567 35.3464C206.056 35.1569 205.5 35.1286 204.972 35.2654C204.73 35.3295 204.5 35.4301 204.289 35.5639L193.158 42.6569C192.886 42.8284 192.652 43.0547 192.472 43.3215C192.292 43.5883 192.17 43.8897 192.113 44.2065C192.056 44.5297 192.063 44.8612 192.135 45.1814C192.208 45.5017 192.343 45.8043 192.533 46.0717C192.844 46.5199 193.285 46.8619 193.796 47.0517C194.307 47.2415 194.865 47.2698 195.393 47.1329C195.634 47.0687 195.865 46.9681 196.076 46.8345L200.322 44.1277C201.021 43.6829 201.784 43.3478 202.584 43.1343C204.335 42.6791 206.184 42.7721 207.88 43.4007C209.577 44.0294 211.04 45.1634 212.071 46.6498C212.705 47.5361 213.155 48.5401 213.395 49.6026C213.635 50.6652 213.66 51.7651 213.47 52.8376C213.281 53.8892 212.875 54.8899 212.278 55.7757C211.68 56.6615 210.904 57.4129 210 57.982L198.87 65.0745C198.171 65.5193 197.409 65.8545 196.609 66.0684" fill="white"/>
</g>
<path d="M1919.64 72.9416C1869.15 -0.37089 1770.32 -21.5625 1694.21 24.6114L1565.46 106.463C1548.06 117.364 1533.14 131.806 1521.69 148.848C1510.23 165.891 1502.49 185.153 1498.97 205.383C1492.71 239.376 1498.13 274.485 1514.35 305.01C1503.27 321.661 1495.82 340.46 1492.5 360.18C1488.86 380.744 1489.34 401.827 1493.93 422.202C1498.51 442.577 1507.1 461.836 1519.2 478.86C1569.77 552 1668.34 573.291 1744.61 527.643L1873.46 445.705C1890.8 434.759 1905.65 420.3 1917.06 403.262C1928.46 386.224 1936.17 366.985 1939.68 346.785C1945.86 312.897 1940.41 277.914 1924.22 247.512C1958.45 193.795 1956.65 124.692 1919.64 72.9416ZM1681.36 485.963C1661.13 491.219 1639.78 490.136 1620.2 482.86C1600.61 475.584 1583.73 462.467 1571.84 445.283C1556.92 424.613 1551.45 399.092 1555.76 373.756L1558.28 361.543L1560.61 353.996L1567.53 358.576C1582.71 370.081 1599.7 378.336 1617.85 383.912L1622.52 385.529L1621.99 390.13C1621.54 396.513 1623.42 403.689 1627.11 409.166C1634.66 420.033 1647.78 425.251 1660.44 421.831C1663.21 420.939 1665.93 420.029 1668.25 418.58L1796.56 336.746C1803.03 332.602 1807.16 326.405 1808.78 319.039C1810.19 311.393 1808.32 303.578 1804.18 297.39C1796.53 286.781 1783.51 282.016 1770.86 285.181C1768.08 286.156 1765.11 287.251 1762.75 288.683L1714.24 319.496C1668.34 346.785 1609.04 333.964 1578.57 290.033C1571.23 279.796 1566.02 268.192 1563.24 255.907C1560.46 243.621 1560.17 230.904 1562.4 218.506C1564.62 206.232 1569.4 194.562 1576.43 184.254C1583.45 173.946 1592.56 165.23 1603.17 158.67L1731.22 76.8185C1739.31 71.7815 1748.01 68.1073 1757.45 65.3128C1798.87 54.5316 1842.52 70.7897 1866.96 105.824C1875.47 117.803 1881.08 131.593 1883.36 146.108C1885.64 160.624 1884.52 175.469 1880.08 189.478L1877.74 197.111L1871.11 192.532C1855.78 181.32 1838.69 172.756 1820.53 167.196L1815.94 165.846L1816.39 161.249C1816.85 154.508 1814.96 147.418 1811.27 141.929C1803.71 131.061 1790.6 126.477 1777.95 129.711C1775.17 130.621 1772.46 131.514 1770.13 132.963L1641.56 215.526C1635.1 219.838 1630.96 225.85 1629.61 233.397C1628.26 240.758 1630.06 248.844 1634.2 254.774C1641.57 265.659 1654.95 270.238 1667.36 266.987C1670.32 266.094 1673.1 265.201 1675.36 263.752L1724.41 232.47C1732.42 227.182 1741.39 223.327 1750.58 220.796C1792.27 209.928 1835.75 226.29 1860.09 261.497C1875.01 282.167 1880.76 307.671 1876.61 332.74C1874.49 344.982 1869.81 356.638 1862.87 366.948C1855.94 377.258 1846.91 385.989 1836.37 392.571L1708.05 474.246C1699.71 479.288 1690.74 483.213 1681.37 485.92L1681.36 485.963Z" fill="#FFD63D"/>
</g>
<defs>
<clipPath id="clip0_307_602">
<rect width="1949" height="552" rx="24" fill="white"/>
</clipPath>
<clipPath id="clip1_307_602">
<rect width="267.135" height="48" fill="white" transform="translate(180 24)"/>
</clipPath>
</defs>
</svg>
